<svg width="17" height="20" viewBox="0 0 17 20" fill="none" xmlns="http://www.w3.org/2000/svg">
<path d="M12.3297 7.74367C12.3297 8.17535 12.3297 8.55808 12.3297 8.93859C12.3297 9.18336 12.2029 9.32578 11.9937 9.32355C11.7845 9.32132 11.6666 9.18114 11.6666 8.93192C11.6666 6.55839 11.6666 4.19153 11.6666 1.83136C11.6666 1.05477 11.2772 0.663136 10.5051 0.663136H4.82195C4.06317 0.663136 3.6693 1.05922 3.6693 1.82023C3.6693 1.97822 3.6693 2.13843 3.6693 2.29865C3.67409 2.34537 3.66883 2.39258 3.65386 2.43711C3.6389 2.48163 3.61458 2.52244 3.58255 2.5568C3.55051 2.59115 3.5115 2.61825 3.46813 2.63629C3.42476 2.65432 3.37803 2.66287 3.33108 2.66135C3.28587 2.6622 3.241 2.65346 3.19941 2.63572C3.15782 2.61799 3.12046 2.59165 3.08977 2.55845C3.05909 2.52524 3.03577 2.48591 3.02137 2.44305C3.00697 2.40019 3.0018 2.35478 3.0062 2.30978C2.99339 1.97763 3.00753 1.64498 3.04848 1.31512C3.11926 0.94341 3.3181 0.608271 3.61041 0.367998C3.90272 0.127725 4.27001 -0.00247868 4.64839 3.57474e-05C6.66292 3.57474e-05 8.67522 3.57474e-05 10.6853 3.57474e-05C11.1205 0.00178903 11.5374 0.175295 11.8454 0.482822C12.1533 0.790349 12.3274 1.20702 12.3297 1.64222C12.3297 3.28886 12.3297 4.93401 12.3297 6.57767C12.3243 6.64267 12.3333 6.70804 12.356 6.76918C12.3787 6.83032 12.4145 6.88573 12.461 6.93148C13.7561 8.22653 15.0482 9.52456 16.3373 10.8255C16.5467 11.029 16.7124 11.2731 16.8242 11.5428C16.9359 11.8126 16.9913 12.1023 16.987 12.3943C16.987 14.7678 16.987 17.148 16.987 19.5349C16.9915 19.5971 16.9915 19.6596 16.987 19.7218C16.9739 19.8016 16.9315 19.8736 16.8682 19.9238C16.8048 19.974 16.725 19.9988 16.6443 19.9933C16.567 19.9932 16.4924 19.9645 16.4349 19.9128C16.3774 19.861 16.341 19.7898 16.3328 19.7129C16.3261 19.6441 16.3261 19.5748 16.3328 19.506C16.3328 17.1532 16.3328 14.8005 16.3328 12.4477C16.3374 12.2293 16.2967 12.0124 16.2132 11.8105C16.1297 11.6087 16.0053 11.4263 15.8477 11.275C14.7337 10.161 13.6211 9.04392 12.51 7.92391C12.461 7.86828 12.4143 7.82155 12.3297 7.74367Z" fill="#011A5A"/>
<path d="M3.33777 3.30441C4.09538 3.30132 4.83151 3.55607 5.42515 4.02678C6.0188 4.49749 6.43464 5.15615 6.60434 5.89452C6.73741 6.62197 6.66021 7.37228 6.38182 8.0574C5.92343 9.37693 5.1691 10.5273 4.33243 11.631C4.10991 11.9337 3.85847 12.2274 3.60925 12.5211C3.57943 12.5675 3.53843 12.6057 3.49003 12.6321C3.44162 12.6585 3.38736 12.6724 3.33221 12.6724C3.27706 12.6724 3.22279 12.6585 3.17439 12.6321C3.12599 12.6057 3.085 12.5675 3.05518 12.5211C1.98264 11.2683 1.02804 9.93767 0.404985 8.39562C0.143965 7.79261 0.00626492 7.14347 0 6.48642C0.0222885 5.76342 0.285231 5.06853 0.747156 4.51188C1.20908 3.95523 1.84356 3.56867 2.55006 3.41344C2.8104 3.37116 3.07298 3.34224 3.33777 3.30441ZM3.33777 11.8246C3.52914 11.5821 3.68713 11.3796 3.83621 11.1882C4.60392 10.2292 5.23036 9.1651 5.69647 8.02847C5.94124 7.38094 6.11925 6.71561 5.94792 6.0258C5.8507 5.56409 5.62452 5.13941 5.29564 4.80108C4.96676 4.46274 4.54866 4.22463 4.08989 4.11437C3.62504 3.96591 3.1277 3.95189 2.65523 4.07395C2.18277 4.196 1.75444 4.44915 1.41967 4.80418C0.643079 5.56964 0.529596 6.50645 0.82332 7.51891C1.13728 8.51709 1.61068 9.45789 2.22518 10.3048C2.56341 10.8144 2.94169 11.2995 3.32442 11.8269L3.33777 11.8246Z" fill="#011A5A"/>
<path d="M10.5095 9.4281C9.89536 10.109 9.80857 10.9279 10.4294 11.5554C10.9234 12.0523 11.4189 12.5478 11.9158 13.0418C12.1673 13.2955 12.1673 13.3555 12.0182 13.6737C11.8448 14.0085 11.7721 14.3862 11.8089 14.7613C11.8456 15.1365 11.9902 15.4929 12.2251 15.7877C12.4343 16.0703 12.4476 16.2327 12.2807 16.3862C12.1139 16.5398 11.898 16.4753 11.6933 16.1993C11.4062 15.8395 11.2197 15.41 11.1528 14.9546C11.086 14.4991 11.1412 14.0341 11.3128 13.607C11.3378 13.5602 11.3453 13.506 11.3339 13.4542C11.3224 13.4024 11.2929 13.3563 11.2505 13.3244C10.8344 12.9172 10.4249 12.5011 10.0133 12.0894C9.78261 11.8826 9.60247 11.6256 9.48674 11.3382C9.371 11.0508 9.32276 10.7406 9.34573 10.4317C9.42557 9.75004 9.75637 9.12256 10.2736 8.67154C10.4294 8.52023 10.5896 8.55361 10.7832 8.74275C11.5976 9.52898 12.4098 10.316 13.2198 11.1037L14.5549 12.392C14.6202 12.4442 14.663 12.5194 14.6746 12.6022C14.6861 12.6849 14.6656 12.769 14.6172 12.8371C14.5787 12.9006 14.5186 12.9482 14.4479 12.9711C14.3772 12.9939 14.3007 12.9906 14.2322 12.9617C14.1522 12.9222 14.0805 12.8679 14.0208 12.8015L10.7031 9.60167L10.5095 9.4281Z" fill="#011A5A"/>
<path d="M7.40096 15.988H4.69735C4.47337 15.9931 4.25067 15.9528 4.04273 15.8694C3.83479 15.786 3.64594 15.6613 3.48762 15.5027C3.3293 15.3442 3.20481 15.1552 3.12168 14.9471C3.03855 14.7391 2.99851 14.5163 3.00399 14.2924C3.00399 14.0899 3.00399 13.8896 3.00399 13.6871C3.00399 13.5986 3.03916 13.5137 3.10175 13.4511C3.16435 13.3885 3.24925 13.3533 3.33777 13.3533C3.42629 13.3533 3.51119 13.3885 3.57379 13.4511C3.63638 13.5137 3.67155 13.5986 3.67155 13.6871C3.67155 13.8673 3.67155 14.0476 3.67155 14.2278C3.65735 14.3763 3.67593 14.5261 3.72596 14.6666C3.77598 14.8072 3.85625 14.935 3.96108 15.0411C4.06592 15.1472 4.19277 15.229 4.33268 15.2807C4.47259 15.3324 4.62214 15.3528 4.77079 15.3404H10.3449C10.4334 15.3404 10.5183 15.3756 10.5809 15.4382C10.6435 15.5008 10.6786 15.5857 10.6786 15.6742C10.6786 15.7627 10.6435 15.8476 10.5809 15.9102C10.5183 15.9728 10.4334 16.008 10.3449 16.008C10.1379 16.008 9.92876 16.008 9.72182 16.008L7.40096 15.988Z" fill="#011A5A"/>
<path d="M10.9968 18.5024C10.9968 18.8695 10.9968 19.2389 10.9968 19.615C10.9968 19.8597 10.87 20.0022 10.6608 19.9999C10.4516 19.9977 10.3337 19.8575 10.3337 19.6061C10.3337 18.9764 10.3337 18.3444 10.3337 17.7147C10.3371 17.6643 10.3259 17.6139 10.3015 17.5697C10.277 17.5255 10.2403 17.4893 10.1957 17.4655C9.9643 17.3124 9.74144 17.1468 9.52819 16.9692C9.48628 16.9431 9.45089 16.9077 9.42471 16.8658C9.39852 16.8239 9.38223 16.7766 9.37708 16.7275C9.37193 16.6784 9.37806 16.6287 9.39499 16.5823C9.41192 16.5359 9.43921 16.4939 9.47478 16.4597C9.61719 16.3128 9.79744 16.3328 9.99325 16.4819C10.2402 16.6688 10.4984 16.8424 10.7632 17.0071C10.8332 17.042 10.8916 17.0966 10.9311 17.1642C10.9706 17.2318 10.9896 17.3094 10.9857 17.3876C10.9924 17.748 10.9968 18.1219 10.9968 18.5024Z" fill="#011A5A"/>
<path d="M7.66571 1.99607H6.70666C6.6601 2.00214 6.61278 1.99812 6.56792 1.98428C6.52306 1.97044 6.4817 1.94711 6.44666 1.91587C6.41162 1.88463 6.38371 1.84621 6.36483 1.80322C6.34596 1.76023 6.33656 1.71368 6.33727 1.66674C6.33524 1.61964 6.34354 1.57267 6.36161 1.52912C6.37968 1.48558 6.40707 1.44652 6.44186 1.41471C6.47665 1.38289 6.51799 1.35908 6.56296 1.34496C6.60794 1.33084 6.65547 1.32674 6.7022 1.33296C7.3475 1.33296 7.99281 1.33296 8.63811 1.33296C8.72664 1.33296 8.81153 1.36812 8.87412 1.43072C8.93672 1.49332 8.97189 1.57821 8.97189 1.66674C8.97189 1.75526 8.93672 1.84016 8.87412 1.90276C8.81153 1.96535 8.72664 2.00052 8.63811 2.00052C8.31769 1.99829 7.99059 1.99607 7.66571 1.99607Z" fill="#011A5A"/>
<path d="M7.67465 13.9897C7.79258 13.9897 7.91051 13.9897 8.02845 13.9897C8.11246 13.9943 8.19135 14.0316 8.2483 14.0935C8.30525 14.1555 8.33575 14.2372 8.3333 14.3213C8.33449 14.3631 8.32742 14.4047 8.31252 14.4438C8.29761 14.4828 8.27516 14.5186 8.24643 14.5489C8.21771 14.5793 8.18328 14.6037 8.14511 14.6208C8.10695 14.6379 8.06579 14.6472 8.024 14.6484C7.78813 14.6595 7.55226 14.6484 7.31639 14.6484C7.22787 14.6484 7.14297 14.6132 7.08038 14.5506C7.01778 14.488 6.98262 14.4031 6.98262 14.3146C6.98262 14.2261 7.01778 14.1412 7.08038 14.0786C7.14297 14.016 7.22787 13.9808 7.31639 13.9808C7.43878 13.9853 7.56561 13.9897 7.67465 13.9897Z" fill="#011A5A"/>
<path d="M5.00215 6.65109C5.00436 6.98128 4.90843 7.30469 4.72654 7.58028C4.54465 7.85587 4.285 8.07122 3.98052 8.19901C3.67605 8.3268 3.34048 8.36126 3.01639 8.29803C2.6923 8.23481 2.3943 8.07674 2.16018 7.84388C1.92607 7.61102 1.7664 7.31386 1.70144 6.99011C1.63647 6.66637 1.66914 6.33062 1.7953 6.02546C1.92145 5.72031 2.1354 5.45951 2.41001 5.27614C2.68462 5.09278 3.00751 4.99512 3.33771 4.99555C3.55571 4.99497 3.77168 5.03733 3.97331 5.12021C4.17493 5.20309 4.35825 5.32487 4.51281 5.4786C4.66737 5.63233 4.79013 5.815 4.87409 6.01617C4.95805 6.21735 5.00157 6.43309 5.00215 6.65109ZM4.3346 6.65109C4.33371 6.4532 4.27407 6.26004 4.16325 6.09609C4.05243 5.93215 3.89543 5.8048 3.71214 5.7302C3.52886 5.65561 3.32754 5.63712 3.13374 5.67708C2.93993 5.71704 2.76235 5.81365 2.62352 5.95467C2.48469 6.09569 2.39087 6.27475 2.35394 6.46916C2.31702 6.66357 2.33865 6.86458 2.41611 7.04667C2.49356 7.22877 2.62335 7.38376 2.78901 7.492C2.95467 7.60024 3.14874 7.65685 3.34662 7.65465C3.60858 7.64833 3.85789 7.5407 4.04214 7.35438C4.22638 7.16806 4.33122 6.91756 4.3346 6.65554V6.65109Z" fill="#011A5A"/>
</svg>
