<svg width="20" height="18" viewBox="0 0 20 18" fill="none" xmlns="http://www.w3.org/2000/svg">
<path d="M8.84284 10.5821C8.45523 10.5318 8.40913 10.3118 8.4238 10.0436C8.43637 9.85502 8.4238 9.66645 8.4238 9.46741C8.27085 9.43598 8.13257 9.40455 7.99219 9.37941C7.67791 9.32075 7.57315 9.18665 7.65067 8.87028C7.75514 8.42405 7.95531 8.00584 8.23733 7.64459C8.37561 7.46441 8.51808 7.28422 8.65637 7.09984C8.83556 6.84974 8.91681 6.54262 8.88474 6.23662C8.80093 4.76999 9.04817 3.38507 9.97843 2.19291C10.6834 1.31399 11.6817 0.718847 12.7902 0.516757C13.9134 0.245875 15.0884 0.278409 16.1949 0.611037C18.0701 1.20607 19.2622 2.49671 19.7567 4.37191C20.3412 6.58024 19.8803 8.56228 18.29 10.2552C18.1518 10.4019 17.9821 10.5192 17.8438 10.6742C17.7745 10.7436 17.7309 10.8345 17.7202 10.9319C17.6783 12.0864 17.9779 13.178 18.3613 14.2528C18.4514 14.5084 18.5373 14.7703 18.6043 15.0364C18.6881 15.3717 18.5519 15.5351 18.2062 15.5351C16.1111 15.5351 14.0208 15.5274 11.9353 15.512C11.6651 15.512 11.5624 15.401 11.5645 15.1265C11.5859 14.67 11.6836 14.2203 11.8536 13.7961C11.9353 13.5635 12.0191 13.3288 12.0778 13.0879C12.1365 12.847 12.0401 12.7401 11.8033 12.7694C11.5058 12.803 11.2146 12.8784 10.9192 12.9349C10.6237 12.9915 10.3598 13.0607 10.0811 13.0942C9.89984 13.1148 9.71641 13.1049 9.53844 13.0648C9.41863 13.0442 9.30801 12.9874 9.22148 12.9019C9.13495 12.8165 9.07666 12.7067 9.05445 12.5871C8.9828 12.212 8.83521 11.8555 8.62075 11.5396C8.55384 11.4283 8.50637 11.3064 8.48037 11.1792C8.40914 10.9005 8.58932 10.756 8.84284 10.5821ZM12.1951 14.8604H17.8857C17.8876 14.836 17.8876 14.8115 17.8857 14.7871C17.8375 14.6467 17.7914 14.5042 17.7411 14.3681C17.3312 13.2966 17.1087 12.1626 17.0832 11.0158C17.0832 10.626 17.1419 10.3076 17.5169 10.119C17.5507 10.0979 17.5811 10.0717 17.607 10.0415C19.1742 8.5581 19.6834 6.74576 19.191 4.67152C19.0369 3.91421 18.692 3.2088 18.1889 2.62213C17.6859 2.03547 17.0413 1.58699 16.3164 1.31921C16.1069 1.23959 15.8973 1.18721 15.6878 1.12226C15.6757 1.1513 15.6666 1.18149 15.6606 1.21236C15.6606 2.11958 15.6606 3.02889 15.6606 3.93611C15.669 3.9683 15.685 3.99802 15.7073 4.02279C15.7295 4.04757 15.7573 4.06669 15.7884 4.07858C16.3604 4.19801 16.6705 4.5479 16.6788 5.12618C16.6893 5.75473 16.6893 6.38329 16.6788 7.01185C16.6847 7.15277 16.6609 7.29335 16.609 7.4245C16.557 7.55564 16.4782 7.67443 16.3774 7.77318C16.2767 7.87192 16.1564 7.94842 16.0243 7.99773C15.8921 8.04705 15.7511 8.06807 15.6103 8.05944C15.5139 8.05492 15.418 8.07511 15.3316 8.11811C14.6339 8.52667 13.9404 8.94361 13.2365 9.35427C13.1963 9.37369 13.1641 9.40644 13.1454 9.44694C13.1266 9.48744 13.1226 9.53318 13.1338 9.57636C13.1672 9.85787 13.0906 10.1414 12.92 10.3678C12.7494 10.5942 12.498 10.746 12.2182 10.7916C11.9476 10.8329 11.6713 10.7731 11.4421 10.6235C11.2129 10.4739 11.0468 10.2451 10.9757 9.98073C10.9159 9.74966 10.9323 9.50545 11.0224 9.28443C11.1125 9.0634 11.2715 8.87738 11.4759 8.75402C11.6802 8.63066 11.9189 8.57656 12.1565 8.59978C12.3941 8.62299 12.6178 8.72227 12.7944 8.88285L14.4433 7.90021C14.3064 7.80402 14.1942 7.6768 14.1159 7.52896C14.0376 7.38111 13.9955 7.21683 13.9928 7.04956C13.9928 6.38957 13.9928 5.72959 13.9928 5.0696C13.9944 4.83225 14.0812 4.60337 14.2373 4.42458C14.3934 4.24579 14.6085 4.12896 14.8435 4.09534C14.8979 4.09534 14.9524 4.0702 14.9985 4.05973V1.01122C14.9294 1.01122 14.8707 0.99027 14.8141 0.988175C14.2076 0.952036 13.5989 0.990736 13.0018 1.10341C11.6294 1.39045 10.5777 2.10491 9.97215 3.39764C9.59681 4.19372 9.43783 5.07463 9.5112 5.95168C9.55123 6.28537 9.51879 6.62375 9.4161 6.94376C9.31341 7.26376 9.14289 7.55784 8.91617 7.80593C8.77274 7.97573 8.64378 8.15725 8.53065 8.34858C8.45344 8.49305 8.38351 8.64129 8.32114 8.79276L8.74017 8.87447C8.78434 8.87817 8.82734 8.89053 8.86673 8.91086C8.90612 8.93118 8.94112 8.95907 8.96972 8.99293C8.99832 9.02679 9.01997 9.06595 9.03343 9.10818C9.0469 9.1504 9.0519 9.19487 9.04817 9.23904C9.04817 9.40875 9.06074 9.58055 9.04817 9.74817C9.0318 9.82274 9.04432 9.90075 9.08321 9.96646C9.12209 10.0322 9.18444 10.0807 9.25769 10.1023C9.62434 10.2615 9.67673 10.5946 9.41064 10.8984C9.32473 10.9969 9.24511 11.0975 9.19064 11.1603C9.3394 11.5416 9.49653 11.9251 9.63482 12.3148C9.67463 12.4279 9.73539 12.4635 9.83177 12.4551C10.0413 12.4363 10.2508 12.4112 10.4603 12.3776C10.9363 12.2719 11.4175 12.1908 11.9018 12.1346C12.0284 12.1281 12.1548 12.1517 12.2707 12.2032C12.3865 12.2547 12.4886 12.3329 12.5686 12.4312C12.6486 12.5296 12.7043 12.6455 12.7311 12.7694C12.758 12.8933 12.7552 13.0218 12.7231 13.1445C12.6582 13.442 12.5408 13.729 12.4529 14.0203C12.3649 14.3115 12.2852 14.5671 12.1993 14.8604H12.1951ZM16.0377 6.06063C16.0377 5.73378 16.0377 5.40693 16.0377 5.08008C16.0422 5.02935 16.0355 4.97825 16.0181 4.93037C16.0008 4.88248 15.9732 4.83896 15.9373 4.80285C15.9013 4.76674 15.858 4.7389 15.8102 4.72128C15.7624 4.70366 15.7113 4.69669 15.6606 4.70085C15.4511 4.70085 15.2415 4.70085 15.032 4.70085C14.978 4.69465 14.9232 4.70062 14.8718 4.71833C14.8203 4.73605 14.7735 4.76506 14.7347 4.80324C14.6959 4.84142 14.6662 4.88779 14.6477 4.93895C14.6291 4.99012 14.6223 5.04479 14.6277 5.09894C14.6277 5.72749 14.6277 6.35605 14.6277 6.99718C14.6213 7.0523 14.6273 7.10812 14.645 7.16069C14.6627 7.21325 14.6919 7.26125 14.7303 7.30127C14.7687 7.34129 14.8155 7.37234 14.8673 7.39221C14.9191 7.41208 14.9746 7.42028 15.0299 7.41622C15.2395 7.41622 15.4364 7.41622 15.6375 7.41622C15.6917 7.42085 15.7462 7.41344 15.7972 7.39453C15.8482 7.37562 15.8944 7.34567 15.9324 7.30682C15.9704 7.26798 15.9994 7.2212 16.0173 7.16984C16.0351 7.11849 16.0414 7.06382 16.0356 7.00975C16.0461 6.69128 16.0419 6.3791 16.0419 6.06691L16.0377 6.06063ZM12.5136 9.6874C12.5153 9.62558 12.5044 9.56405 12.4816 9.50657C12.4587 9.4491 12.4244 9.3969 12.3806 9.35316C12.3369 9.30943 12.2847 9.27507 12.2272 9.25221C12.1697 9.22934 12.1082 9.21845 12.0464 9.22018C11.9252 9.22125 11.8092 9.26959 11.7231 9.3549C11.637 9.44021 11.5876 9.55575 11.5854 9.67693C11.584 9.73884 11.5949 9.80042 11.6173 9.85815C11.6397 9.91588 11.6733 9.96862 11.7161 10.0134C11.7589 10.0581 11.8101 10.094 11.8668 10.119C11.9234 10.1439 11.9845 10.1575 12.0464 10.1588C12.1082 10.1591 12.1694 10.1471 12.2265 10.1234C12.2836 10.0998 12.3354 10.065 12.3789 10.0211C12.4224 9.97723 12.4567 9.92512 12.4798 9.86782C12.503 9.81053 12.5144 9.74919 12.5136 9.6874Z" fill="#011A5A"/>
<path d="M7.22326 5.84481C7.22326 6.25128 7.22326 6.62213 7.22326 6.99298C7.23494 7.06429 7.22477 7.13747 7.19411 7.2029C7.16345 7.26834 7.11372 7.32297 7.05145 7.35963C6.98541 7.3891 6.9121 7.39826 6.84084 7.38595C6.76958 7.37363 6.70359 7.3404 6.65127 7.29049C6.03947 6.84631 5.42558 6.40213 4.8054 5.96843C4.69476 5.89468 4.5654 5.85398 4.43246 5.85109C3.30315 5.85109 2.17175 5.85109 1.04244 5.85109C0.453696 5.85109 0.116367 5.51796 0.116367 4.9355V0.891782C0.105413 0.772382 0.120873 0.652031 0.161643 0.539274C0.202414 0.426517 0.267498 0.324114 0.352281 0.239331C0.437064 0.154547 0.539467 0.0894639 0.652224 0.0486932C0.764981 0.00792239 0.885326 -0.00753726 1.00473 0.00341715H7.56896C7.68829 -0.0040665 7.80783 0.0140671 7.91957 0.0566026C8.03131 0.099138 8.13266 0.165089 8.2168 0.250028C8.30095 0.334967 8.36594 0.436929 8.40743 0.549063C8.44891 0.661197 8.46592 0.780907 8.45732 0.900158C8.45732 2.24527 8.45732 3.59039 8.45732 4.9355C8.46847 5.05861 8.45224 5.18266 8.40981 5.29877C8.36737 5.41487 8.29978 5.52015 8.21187 5.60706C8.12396 5.69397 8.01791 5.76035 7.90133 5.80146C7.78475 5.84256 7.66051 5.85737 7.53753 5.84481H7.22326ZM6.5947 6.4608C6.5947 6.14652 6.5947 5.88043 6.5947 5.61225C6.5947 5.34406 6.70155 5.21625 6.99907 5.21206H7.48725C7.78057 5.21206 7.82038 5.17225 7.82038 4.8894C7.82038 3.57642 7.82038 2.26273 7.82038 0.94835C7.82038 0.66969 7.78476 0.636169 7.50191 0.636169H1.08854C0.784736 0.636169 0.744925 0.678069 0.744925 0.992347V4.85378C0.744925 5.17435 0.784733 5.21416 1.1053 5.21416C2.26813 5.21416 3.43096 5.21416 4.59379 5.21416C4.76305 5.2104 4.92857 5.26434 5.06312 5.36711C5.55549 5.72748 6.05623 6.07738 6.5905 6.4608H6.5947Z" fill="#011A5A"/>
<path d="M7.10382 11.5773H7.43276C7.55417 11.5668 7.6764 11.5829 7.79093 11.6246C7.90546 11.6662 8.00954 11.7323 8.0959 11.8183C8.18227 11.9042 8.24885 12.008 8.29101 12.1223C8.33316 12.2367 8.34987 12.3588 8.33998 12.4803C8.33998 13.6892 8.33998 14.8981 8.33998 16.105C8.34773 16.3204 8.33863 16.5362 8.31274 16.7503C8.28674 16.9367 8.19367 17.1072 8.05095 17.2298C7.90824 17.3525 7.72569 17.4189 7.53752 17.4166C5.28868 17.4166 3.04194 17.4166 0.797291 17.4166C0.690586 17.4166 0.584961 17.3952 0.486689 17.3536C0.388417 17.3121 0.299501 17.2512 0.225231 17.1745C0.150962 17.0979 0.0928513 17.0072 0.0543513 16.9076C0.0158513 16.8081 -0.0022485 16.7019 0.00112113 16.5952C0.00112113 15.2124 0.00112113 13.8282 0.00112113 12.4426C-0.00486096 12.328 0.0132261 12.2134 0.0542234 12.1063C0.0952207 11.9991 0.158219 11.9017 0.239151 11.8204C0.320083 11.7391 0.417154 11.6756 0.524113 11.6341C0.631072 11.5926 0.745538 11.5739 0.860144 11.5793C2.01669 11.5793 3.16486 11.5793 4.32979 11.5793C4.45649 11.5761 4.57951 11.536 4.68387 11.4641C5.29776 11.0346 5.90746 10.5946 6.51507 10.1546C6.56808 10.0997 6.63636 10.0619 6.71107 10.0463C6.78578 10.0306 6.86348 10.0377 6.93411 10.0666C7.09544 10.1441 7.11429 10.2908 7.1122 10.45C7.10172 10.8146 7.10382 11.1855 7.10382 11.5773ZM6.47526 10.9634C5.94518 11.3426 5.44862 11.6904 4.96253 12.0508C4.8171 12.1617 4.63836 12.22 4.45549 12.2163C3.28638 12.2163 2.11726 12.2163 0.948145 12.2163C0.690437 12.2163 0.629678 12.2708 0.629678 12.5012C0.629678 13.8394 0.629678 15.1789 0.629678 16.5198C0.629678 16.7293 0.696721 16.7943 0.914621 16.7943H7.40971C7.58152 16.7943 7.70932 16.7649 7.70932 16.5554C7.70932 15.1894 7.70932 13.824 7.70932 12.4593C7.70932 12.2938 7.63181 12.2163 7.47257 12.2163C7.26305 12.2163 7.0661 12.2163 6.86496 12.2163C6.59468 12.2163 6.48574 12.1011 6.48364 11.8329C6.48155 11.5647 6.47316 11.2818 6.47316 10.9655L6.47526 10.9634Z" fill="#011A5A"/>
<path d="M3.4184 2.90943C3.3054 2.7931 3.21662 2.65551 3.15718 2.50461C3.09775 2.35372 3.06886 2.19254 3.07217 2.0304C3.07548 1.86825 3.11093 1.70838 3.17648 1.56005C3.24203 1.41171 3.33636 1.27785 3.45401 1.16624C3.66652 0.963957 3.94553 0.84617 4.23871 0.834983C4.53188 0.823796 4.81906 0.919977 5.04636 1.10548C5.59111 1.54547 5.63511 2.17192 5.16997 2.90315C5.31035 3.00581 5.45702 3.1001 5.58901 3.21533C5.97491 3.54704 6.21433 4.01761 6.25528 4.52483C6.26975 4.63325 6.24126 4.74303 6.17588 4.83072C6.1105 4.91841 6.01343 4.97706 5.90539 4.99415C5.82794 5.00787 5.74937 5.01419 5.67073 5.013H2.90927C2.4169 5.013 2.25137 4.80349 2.34775 4.32159C2.39689 4.05099 2.50324 3.794 2.6597 3.56781C2.81615 3.34162 3.0191 3.15144 3.25497 3.01L3.4184 2.90943ZM5.56597 4.3614C5.49548 4.0647 5.32443 3.80156 5.0819 3.61669C4.83936 3.43183 4.54029 3.33665 4.23552 3.34733C3.62582 3.38085 3.05593 3.85018 3.01403 4.3614H5.56597ZM4.86408 2.05669C4.86411 1.90215 4.80359 1.75373 4.69549 1.64328C4.58739 1.53283 4.44032 1.46914 4.2858 1.46585C4.13132 1.46585 3.98317 1.52721 3.87394 1.63645C3.76471 1.74568 3.70334 1.89383 3.70334 2.04831C3.70334 2.20279 3.76471 2.35094 3.87394 2.46018C3.98317 2.56941 4.13132 2.63077 4.2858 2.63077C4.43713 2.6266 4.58119 2.5649 4.68863 2.45824C4.79606 2.35159 4.8588 2.20799 4.86408 2.05669Z" fill="#011A5A"/>
<path d="M4.15589 13.444H1.64166C1.57678 13.4483 1.51169 13.4483 1.44681 13.444C1.36346 13.4465 1.28252 13.4158 1.22182 13.3587C1.16111 13.3015 1.1256 13.2225 1.1231 13.1392C1.1206 13.0558 1.15131 12.9749 1.20848 12.9142C1.26565 12.8535 1.3446 12.818 1.42795 12.8155C1.49234 12.805 1.5576 12.8008 1.6228 12.8029H6.73088C6.78974 12.8011 6.84864 12.8046 6.90687 12.8134C6.98559 12.8214 7.05823 12.8593 7.10972 12.9194C7.16121 12.9795 7.18761 13.057 7.18344 13.136C7.18246 13.2156 7.15111 13.2918 7.09581 13.3491C7.04051 13.4063 6.96543 13.4403 6.88592 13.444C6.82935 13.444 6.77069 13.444 6.71202 13.444H4.15589Z" fill="#011A5A"/>
<path d="M4.16426 14.8248H1.59555C1.5178 14.8273 1.44011 14.8181 1.36508 14.7976C1.29781 14.7753 1.24026 14.7306 1.20212 14.6709C1.16398 14.6112 1.14759 14.5402 1.15571 14.4698C1.16383 14.3994 1.19596 14.334 1.2467 14.2845C1.29743 14.2351 1.36366 14.2046 1.43423 14.1983C1.49285 14.1952 1.5516 14.1952 1.61022 14.1983H6.72667C6.77277 14.1983 6.81677 14.1983 6.86286 14.1983C6.90364 14.1975 6.94417 14.2049 6.98204 14.22C7.0199 14.2352 7.05433 14.2578 7.08327 14.2865C7.1122 14.3153 7.13506 14.3495 7.15047 14.3873C7.16588 14.4251 7.17352 14.4655 7.17295 14.5063C7.17406 14.5473 7.16709 14.5881 7.15242 14.6265C7.13776 14.6648 7.11569 14.6998 7.08747 14.7296C7.05926 14.7593 7.02546 14.7833 6.988 14.8C6.95053 14.8167 6.91015 14.8258 6.86915 14.8269C6.79099 14.8311 6.71265 14.8311 6.63449 14.8269L4.16426 14.8248Z" fill="#011A5A"/>
<path d="M4.16637 15.5749H6.83354C6.91084 15.5703 6.98712 15.5944 7.04775 15.6425C7.10838 15.6907 7.14909 15.7596 7.16207 15.8359C7.17505 15.9122 7.15939 15.9907 7.1181 16.0562C7.0768 16.1217 7.01278 16.1696 6.9383 16.1909C6.89379 16.2018 6.84778 16.2053 6.80212 16.2013H1.52852C1.45038 16.2133 1.37058 16.1959 1.30445 16.1526C1.23832 16.1093 1.19052 16.0431 1.17024 15.9667C1.14721 15.9045 1.14746 15.8361 1.17095 15.7741C1.19445 15.7121 1.2396 15.6606 1.29805 15.6293C1.37939 15.5896 1.4696 15.5716 1.55995 15.577C2.42946 15.5749 3.29896 15.5749 4.16637 15.5749Z" fill="#011A5A"/>
</svg>
