<svg width="20" height="22" viewBox="0 0 20 22" fill="none" xmlns="http://www.w3.org/2000/svg">
<path d="M13.9225 0C14.2719 0.172461 14.3006 0.221106 14.252 0.709746C14.1591 1.64723 14.0626 2.58471 13.9623 3.52219C13.9603 3.57681 13.9469 3.63042 13.9231 3.67962C13.8993 3.72883 13.8656 3.77256 13.824 3.80808C13.7825 3.84361 13.734 3.87014 13.6817 3.88601C13.6294 3.90187 13.5744 3.90673 13.5201 3.90028C13.4674 3.89503 13.4162 3.87942 13.3695 3.85433C13.3228 3.82924 13.2815 3.79516 13.248 3.75407C13.2145 3.71298 13.1895 3.66568 13.1743 3.61489C13.1592 3.56409 13.1542 3.51079 13.1597 3.45807C13.2548 2.48521 13.3653 1.51457 13.4538 0.541708C13.4507 0.421486 13.4877 0.30365 13.5589 0.206772C13.6302 0.109895 13.7316 0.0394808 13.8473 0.00663286L13.9225 0Z" fill="#011A5A"/>
<path d="M7.31593 14.6393L8.45019 16.3153C8.94547 17.0449 9.44738 17.7701 9.93381 18.5064C10.0838 18.7164 10.1825 18.9585 10.2222 19.2134C10.2619 19.4683 10.2414 19.729 10.1623 19.9746C10.0832 20.2201 9.9478 20.4438 9.76684 20.6277C9.58589 20.8116 9.36442 20.9506 9.12014 21.0336C8.75515 21.1588 8.35853 21.1568 7.99481 21.028C7.6311 20.8991 7.32169 20.651 7.11693 20.3239C6.18682 18.9575 5.25819 17.5896 4.33102 16.2202L4.20721 16.0433C3.8904 16.1799 3.5637 16.2922 3.22992 16.3794C1.59817 16.6956 0.366623 15.5701 0.0681318 14.2701C-0.052998 13.7516 -0.011917 13.2084 0.185816 12.7141C0.383549 12.2198 0.728387 11.7981 1.17365 11.5062C1.73526 11.1193 2.30571 10.7456 2.8651 10.3565C2.96528 10.2869 3.04657 10.1934 3.10168 10.0845C4.15414 7.96489 5.20218 5.84303 6.24579 3.71895C6.3966 3.40281 6.64425 3.14298 6.95279 2.97718C7.26133 2.81138 7.61469 2.74824 7.96155 2.79695C8.81464 2.90689 9.61857 3.25822 10.2787 3.80961C12.5272 5.52066 14.1239 7.94818 14.8047 10.6904C15.0069 11.3901 15.0138 12.1318 14.8246 12.8351C14.6234 13.4984 14.221 14.0025 13.498 14.1263C13.1243 14.1905 12.7418 14.1927 12.366 14.2236L8.96758 14.5C8.54085 14.5354 8.11412 14.5641 7.6896 14.5973L7.31593 14.6393ZM6.73443 5.09864C6.76096 5.34849 6.7698 5.5917 6.81181 5.82829C6.85845 6.09879 6.92195 6.36611 7.00196 6.62869C7.67687 8.7636 8.92872 10.6704 10.6192 12.1386C11.1533 12.6387 11.7902 13.016 12.4853 13.2441C12.6849 13.3156 12.8976 13.3435 13.1089 13.3259C13.3275 13.289 13.5295 13.1859 13.6877 13.0305C13.8458 12.8751 13.9525 12.6749 13.9933 12.457C14.1519 11.8312 14.1289 11.1731 13.927 10.5599C13.2177 8.11162 11.7364 5.95798 9.70386 4.41985C9.23975 4.04734 8.69802 3.78366 8.11854 3.6482C7.4309 3.49564 6.91573 3.83171 6.79191 4.53261C6.76317 4.72055 6.75433 4.91513 6.73443 5.09864ZM5.99151 6.06929C5.96056 6.12678 5.9296 6.17984 5.90307 6.23291C5.23534 7.59933 4.56613 8.96355 3.89545 10.3256C3.86316 10.3763 3.8479 10.4361 3.85188 10.4961C3.85585 10.5561 3.87886 10.6133 3.91755 10.6594C4.62066 11.6912 5.3201 12.7231 6.01584 13.7549C6.04449 13.8078 6.0894 13.8502 6.14394 13.8756C6.19848 13.9011 6.25976 13.9084 6.31875 13.8964C6.9489 13.8367 7.58125 13.7925 8.2114 13.7416L10.9907 13.5205C11.0062 13.5205 11.0194 13.5006 11.0216 13.4984C8.50972 11.704 6.7249 9.06793 5.99151 6.06929ZM5.35031 14.228L3.22771 11.1038C2.6661 11.4886 2.12219 11.8512 1.57827 12.2359C1.34585 12.3928 1.15622 12.6052 1.0265 12.8538C0.896789 13.1024 0.831097 13.3794 0.835364 13.6598C0.82582 14.0034 0.909597 14.3432 1.07779 14.643C1.24598 14.9428 1.4923 15.1914 1.79053 15.3623C2.0553 15.542 2.36664 15.6409 2.6866 15.6468C3.00656 15.6527 3.32133 15.5653 3.59254 15.3955C4.18952 15.0395 4.75112 14.6282 5.35031 14.228ZM4.87273 15.5436C4.91473 15.6144 4.9479 15.6741 4.98549 15.7293L5.77483 16.8923L7.80457 19.8817C7.89073 20.0369 8.02362 20.1611 8.18438 20.2365C8.34513 20.3119 8.52557 20.3348 8.70004 20.3018C9.35009 20.1824 9.61099 19.4947 9.22848 18.9265C8.31606 17.5734 7.40068 16.2231 6.48236 14.8759C6.46052 14.8379 6.43122 14.8047 6.39621 14.7783C6.36121 14.7519 6.32123 14.7329 6.27868 14.7223C6.23613 14.7118 6.19189 14.71 6.14862 14.717C6.10535 14.724 6.06394 14.7397 6.02689 14.7631C5.63996 15.0108 5.26408 15.2761 4.87273 15.5414V15.5436Z" fill="#011A5A"/>
<path d="M18.9195 3.50229C18.82 3.64159 18.7669 3.78088 18.6652 3.84942C17.7344 4.47294 16.7969 5.0854 15.8572 5.69786C15.8103 5.73057 15.7573 5.75342 15.7013 5.76503C15.6453 5.77664 15.5876 5.77676 15.5316 5.76539C15.4755 5.75402 15.4224 5.73139 15.3754 5.69888C15.3284 5.66637 15.2884 5.62465 15.258 5.57625C15.2289 5.52926 15.2096 5.47686 15.2012 5.4222C15.1929 5.36754 15.1958 5.31177 15.2096 5.25825C15.2235 5.20472 15.248 5.15456 15.2818 5.11079C15.3156 5.06702 15.3579 5.03055 15.4061 5.00359C16.3348 4.38892 17.2634 3.77425 18.2053 3.17727C18.2737 3.14363 18.3484 3.12467 18.4246 3.12162C18.5007 3.11858 18.5767 3.13151 18.6475 3.15958C18.7515 3.2038 18.8134 3.36521 18.9195 3.50229Z" fill="#011A5A"/>
<path d="M16.2618 7.6347L17.8958 7.92656C18.464 8.03048 19.03 8.1344 19.5983 8.2339C19.655 8.23666 19.7105 8.25082 19.7616 8.27553C19.8127 8.30025 19.8583 8.335 19.8956 8.37772C19.933 8.42044 19.9613 8.47026 19.979 8.52418C19.9967 8.57811 20.0033 8.63504 19.9985 8.69158C19.9886 8.75107 19.9666 8.8079 19.9339 8.85857C19.9011 8.90924 19.8584 8.95269 19.8083 8.98624C19.7582 9.01979 19.7017 9.04273 19.6424 9.05366C19.5831 9.06458 19.5222 9.06326 19.4634 9.04977C19.0035 8.97017 18.5436 8.88395 18.0837 8.79993L16.2795 8.47932C16.0982 8.44616 15.928 8.37098 15.8992 8.18305C15.8823 8.04488 15.9136 7.90512 15.9877 7.78727C16.0451 7.69883 16.1889 7.67229 16.2618 7.6347Z" fill="#011A5A"/>
<path d="M9.74809 6.78348C10.209 6.78734 10.6568 6.93703 11.0274 7.2111C11.398 7.48516 11.6723 7.86953 11.811 8.3091C11.9552 8.75085 11.9565 9.22679 11.8148 9.66934C11.6731 10.1119 11.3956 10.4986 11.0216 10.7744C10.9473 10.8424 10.852 10.8829 10.7515 10.8894C10.651 10.8958 10.5513 10.8677 10.4689 10.8098C10.3961 10.7611 10.3427 10.6884 10.318 10.6043C10.2934 10.5202 10.299 10.4302 10.334 10.3499C10.3872 10.248 10.4628 10.1596 10.5551 10.0912C10.828 9.87739 11.0114 9.56949 11.0694 9.2277C11.1274 8.8859 11.0558 8.53476 10.8687 8.24291C10.6816 7.95106 10.3924 7.73946 10.0576 7.64948C9.72277 7.5595 9.36644 7.5976 9.05824 7.75633C9.00296 7.78508 8.95211 7.82045 8.89683 7.8492C8.84986 7.87825 8.79753 7.8976 8.74296 7.9061C8.68838 7.9146 8.63265 7.91207 8.57906 7.89868C8.52548 7.88528 8.47512 7.86128 8.43096 7.8281C8.3868 7.79492 8.34974 7.75322 8.32196 7.70548C8.29523 7.65895 8.27812 7.60751 8.27167 7.55424C8.26522 7.50096 8.26955 7.44693 8.2844 7.39536C8.29925 7.34379 8.32432 7.29573 8.35812 7.25405C8.39192 7.21236 8.43377 7.1779 8.48116 7.15272C8.85512 6.90158 9.29775 6.77257 9.74809 6.78348Z" fill="#011A5A"/>
</svg>
