<svg width="20" height="20" viewBox="0 0 20 20" fill="none" xmlns="http://www.w3.org/2000/svg">
<path d="M0 14.097C0.20866 13.6025 0.427752 13.1101 0.625979 12.6135C0.634867 12.5476 0.619271 12.4808 0.582156 12.4257C0.427748 12.1356 0.239958 11.8581 0.110589 11.5576C-0.011363 11.2524 -0.0268058 10.915 0.0667663 10.5999C0.181529 10.1534 0.298378 9.70683 0.431921 9.26655C0.566932 8.81375 0.851637 8.42017 1.23944 8.15022C1.26448 8.13144 1.2916 8.10014 1.31872 8.09597C1.59624 8.0605 1.57121 7.84766 1.59625 7.65152C1.9927 4.37348 3.69745 2.04067 6.70006 0.673949C7.21143 0.469008 7.7373 0.302315 8.27335 0.175249C8.33763 0.146789 8.40838 0.136124 8.47819 0.144372C8.548 0.152619 8.61431 0.179474 8.67019 0.222129C8.72607 0.264783 8.76946 0.32167 8.79583 0.386838C8.82219 0.452005 8.83055 0.52306 8.82005 0.592568C8.80336 0.778276 8.69067 0.895126 8.46115 0.945204C7.7312 1.08816 7.02749 1.3422 6.37455 1.69846C4.2024 2.91912 2.87116 4.75116 2.4434 7.21125C2.36411 7.67031 2.36828 8.14188 2.33072 8.60928C2.32352 8.65703 2.33311 8.70579 2.35784 8.74727C2.38257 8.78874 2.42092 8.82035 2.46635 8.83671C2.68753 8.94522 2.90246 9.06415 3.13615 9.18935C2.95671 6.78559 3.72666 4.77202 5.54408 3.20499C6.20869 2.62148 6.98367 2.17733 7.82309 1.89884C8.66252 1.62034 9.5493 1.51318 10.4309 1.5837C11.3571 1.64501 12.2614 1.89296 13.0894 2.31266C13.9174 2.73236 14.652 3.31514 15.249 4.02597C15.846 4.7368 16.2931 5.56101 16.5634 6.44904C16.8338 7.33708 16.9218 8.27061 16.8221 9.19352C17.0788 9.05581 17.3271 8.9327 17.5629 8.78872C17.6109 8.76159 17.6297 8.65726 17.6297 8.58006C17.6708 7.16328 17.309 5.76391 16.5864 4.54458C16.0483 3.62295 15.3216 2.82535 14.454 2.204C13.5863 1.58265 12.5972 1.15156 11.5514 0.938944C11.2175 0.863827 11.0777 0.565443 11.2551 0.312965C11.3067 0.245391 11.3777 0.195195 11.4586 0.169091C11.5396 0.142988 11.6265 0.142221 11.7079 0.166901C13.0966 0.448036 14.3898 1.08101 15.4638 2.00519C16.9527 3.26332 17.9569 5.00087 18.3036 6.91913C18.3725 7.27594 18.4017 7.639 18.4476 7.9979C18.6847 8.08466 18.8995 8.22338 19.076 8.40391C19.2526 8.58444 19.3865 8.80219 19.4679 9.0412C19.6667 9.58592 19.8277 10.1437 19.9499 10.7105C20.0043 10.9507 20.0023 11.2003 19.944 11.4396C19.8857 11.6789 19.7727 11.9014 19.614 12.0897C19.4945 12.2133 19.421 12.3742 19.4058 12.5455C19.3906 12.7168 19.4346 12.888 19.5305 13.0308C19.6867 13.3452 19.826 13.6677 19.9479 13.9969C20.0585 14.2598 19.9896 14.481 19.7747 14.5749C19.5598 14.6688 19.3386 14.5749 19.2217 14.2973C19.0318 13.8508 18.8461 13.4043 18.6542 12.9494L16.9661 13.3062C17.0746 13.7715 17.1748 14.2243 17.2895 14.675L18.4226 19.4471C18.4401 19.4994 18.4472 19.5547 18.4432 19.6097C18.4393 19.6648 18.4245 19.7185 18.3997 19.7678C18.3748 19.8171 18.3404 19.861 18.2985 19.8969C18.2566 19.9328 18.208 19.9601 18.1555 19.9771C18.1001 19.9911 18.0423 19.9931 17.9861 19.9829C17.9299 19.9727 17.8765 19.9505 17.8296 19.9179C17.7827 19.8852 17.7433 19.8429 17.7142 19.7937C17.6851 19.7445 17.667 19.6896 17.661 19.6328C17.2228 17.8452 16.7908 16.0543 16.3652 14.2598C16.3506 14.1972 16.3339 14.1346 16.3109 14.0511C14.5957 15.8832 12.5091 16.8701 10.0031 16.8701C7.49714 16.8701 5.41263 15.8831 3.69119 14.0615C3.66794 14.1201 3.64842 14.18 3.63277 14.241C3.21545 16.0146 2.79813 17.7882 2.38081 19.5618C2.33282 19.7705 2.26396 19.9562 2.02191 19.9937C1.95397 20.0045 1.88439 19.9974 1.82008 19.973C1.75577 19.9486 1.69896 19.9077 1.65529 19.8546C1.61163 19.8014 1.58263 19.7378 1.57118 19.6699C1.55972 19.6021 1.5662 19.5325 1.58999 19.4679C1.75691 18.7543 1.92801 18.0407 2.09703 17.3271C2.4121 16.0021 2.72301 14.6771 3.0506 13.3229L2.39124 13.1747C2.10537 13.1142 1.81742 13.0662 1.53364 12.9953C1.39801 12.9598 1.34168 12.9849 1.28952 13.1163C1.14137 13.4982 0.957746 13.8654 0.826291 14.2514C0.694835 14.6375 0.310898 14.796 0.0083418 14.3766L0 14.097ZM3.94158 9.13927H7.1612C7.44329 9.12971 7.72434 9.17813 7.98698 9.28152C8.24961 9.38492 8.48823 9.54109 8.68811 9.74037C8.88798 9.93966 9.04486 10.1778 9.14902 10.4402C9.25318 10.7025 9.30242 10.9834 9.2937 11.2655V14.4935H10.7001V11.2822C10.6893 10.999 10.737 10.7166 10.8401 10.4525C10.9432 10.1885 11.0995 9.94854 11.2993 9.74753C11.4992 9.54653 11.7382 9.3888 12.0016 9.28415C12.2651 9.17951 12.5472 9.13019 12.8305 9.13927H16.0438V7.70578C16.0438 7.58267 15.9604 7.55345 15.854 7.52841C14.6368 7.23629 13.4203 6.94139 12.2045 6.6437C10.8707 6.29943 9.47461 6.27441 8.12937 6.57067C6.81273 6.87114 5.50653 7.20708 4.19197 7.51381C4.15404 7.51565 4.11692 7.5255 4.08306 7.54271C4.0492 7.55992 4.01937 7.5841 3.99552 7.61367C3.97167 7.64323 3.95435 7.67751 3.94469 7.71424C3.93504 7.75097 3.93327 7.78933 3.9395 7.8268C3.94576 8.25455 3.94158 8.6823 3.94158 9.13927ZM4.18779 6.70004C4.24831 6.70004 4.30465 6.68334 4.3589 6.66874C5.4022 6.41835 6.4455 6.17422 7.4888 5.90922C8.95803 5.51552 10.4995 5.47477 11.9875 5.79028C13.1476 6.04485 14.2974 6.34114 15.4512 6.62492C15.5723 6.65413 15.6933 6.67708 15.8289 6.70629C15.4263 5.34353 14.5585 4.16513 13.3765 3.37629C12.1946 2.58744 10.7734 2.23811 9.36047 2.38913C6.51853 2.67499 4.64059 4.85131 4.18779 6.70004ZM4.91602 9.92383C4.91602 10.4997 4.91602 11.0569 4.91602 11.614C4.91035 11.6993 4.92841 11.7845 4.96819 11.8602C5.29912 12.3593 5.70605 12.8035 6.17424 13.1768C6.85716 13.7278 7.65173 14.1237 8.50288 14.337C8.50288 14.266 8.50288 14.2097 8.50288 14.1513C8.50288 13.2019 8.50288 12.2525 8.50288 11.3031C8.51453 11.1187 8.48676 10.934 8.42144 10.7613C8.35611 10.5885 8.25472 10.4317 8.12402 10.3012C7.99332 10.1707 7.83633 10.0695 7.66347 10.0044C7.49061 9.93938 7.30587 9.9119 7.12156 9.92383C6.53731 9.92383 5.95097 9.92383 5.36673 9.92383H4.91602ZM11.4825 14.3057L11.5222 14.3161C12.9684 13.9497 14.2259 13.0568 15.0485 11.8122C15.0773 11.7705 15.0926 11.721 15.0924 11.6703C15.0694 11.0902 15.0423 10.5102 15.0131 9.90714C15.0339 9.90714 15.0465 9.92175 15.0131 9.90714C14.2389 9.90714 13.4627 9.8821 12.6907 9.90714C12.3732 9.91137 12.0697 10.0385 11.844 10.2619C11.6183 10.4852 11.488 10.7874 11.4805 11.1048C11.4638 12.1899 11.4825 13.2499 11.4825 14.3161V14.3057ZM16.023 13.1101C15.8748 12.9515 15.7246 12.7908 15.5764 12.6281C15.556 12.5974 15.5391 12.5645 15.5264 12.53C14.0824 14.3328 12.2671 15.3031 9.99271 15.3031C7.71832 15.3031 5.90506 14.3328 4.48827 12.5696L3.96662 13.1247C7.07147 17.133 13.0809 16.9911 16.023 13.1205V13.1101ZM1.40428 9.05163C1.39503 9.06682 1.38735 9.0829 1.38133 9.09962C1.28117 9.35836 1.17266 9.61084 1.08503 9.87584C0.973338 10.2171 0.885494 10.5657 0.82212 10.9191C0.744916 11.4157 1.11216 11.7538 1.34377 12.121C1.36463 12.1565 1.43558 12.1669 1.48566 12.1774C2.08242 12.3025 2.67919 12.4277 3.27595 12.5488C3.32186 12.5592 3.39072 12.5634 3.41785 12.5362C3.73501 12.2358 4.07721 11.9353 4.13146 11.4742C4.16965 11.058 4.1815 10.6399 4.16693 10.2222C4.16884 10.1798 4.15963 10.1375 4.14021 10.0997C4.12079 10.0619 4.09184 10.0298 4.05622 10.0066C4.0206 9.98346 3.97955 9.96998 3.93711 9.96753C3.89468 9.96508 3.85235 9.97375 3.8143 9.99268C3.66801 10.0567 3.50855 10.0848 3.3492 10.0746C3.18986 10.0644 3.03525 10.0163 2.89828 9.93426C2.57277 9.75481 2.241 9.58997 1.91967 9.40635C1.75065 9.31663 1.59624 9.19561 1.40428 9.06206V9.05163ZM18.5791 9.01616C18.4872 9.11936 18.3851 9.21304 18.2744 9.29576C17.8571 9.52737 17.4398 9.74647 17.0225 9.96765C16.9014 10.0321 16.7679 10.0696 16.631 10.0775C16.4942 10.0854 16.3572 10.0636 16.2295 10.0136C15.9666 9.91757 15.8227 10.0136 15.8122 10.2973C15.8122 10.5185 15.8247 10.7397 15.8122 10.9588C15.7642 11.6202 16.0793 12.1043 16.553 12.5112C16.6052 12.5419 16.6674 12.5509 16.7262 12.5362C17.1593 12.4252 17.5981 12.3374 18.0407 12.2733C18.2167 12.2455 18.3852 12.1825 18.5364 12.0882C18.6875 11.9939 18.8182 11.8702 18.9206 11.7244C19.023 11.5786 19.095 11.4137 19.1324 11.2396C19.1698 11.0654 19.1718 10.8854 19.1383 10.7105C19.0318 10.3182 18.9296 9.92174 18.8107 9.53155C18.7444 9.35843 18.667 9.18976 18.5791 9.0266V9.01616Z" fill="#011A5A"/>
<path d="M10.1534 0C10.2472 0.105293 10.3246 0.224184 10.3829 0.352635C10.4022 0.443341 10.385 0.537994 10.335 0.616103C10.285 0.694211 10.2063 0.749487 10.1158 0.769955C10.0252 0.797573 9.92777 0.79169 9.84119 0.753379C9.75461 0.715069 9.6847 0.64689 9.64423 0.561295C9.60363 0.479186 9.59373 0.385264 9.6163 0.296491C9.63888 0.207717 9.69245 0.129941 9.76735 0.0772031C9.80282 0.0500773 9.84246 0.0271278 9.88002 0.00208863L10.1534 0Z" fill="#011A5A"/>
<path d="M10.0011 9.61923C9.75113 9.62129 9.50621 9.54911 9.29734 9.41185C9.08846 9.27458 8.92503 9.07839 8.82776 8.84816C8.73049 8.61792 8.70377 8.36399 8.75096 8.11854C8.79814 7.87309 8.91712 7.64718 9.09283 7.46942C9.26854 7.29166 9.49307 7.17007 9.73795 7.12003C9.98283 7.07 10.237 7.09379 10.4684 7.18838C10.6997 7.28297 10.8978 7.44411 11.0375 7.65138C11.1772 7.85865 11.2522 8.10272 11.253 8.35266C11.255 8.51829 11.224 8.68266 11.162 8.83625C11.0999 8.98983 11.008 9.12958 10.8915 9.24738C10.7751 9.36519 10.6364 9.45871 10.4836 9.52254C10.3307 9.58637 10.1667 9.61924 10.0011 9.61923ZM10.4685 8.35266C10.4668 8.25944 10.4377 8.16878 10.3848 8.09204C10.3318 8.0153 10.2574 7.95588 10.1708 7.92125C10.0843 7.88661 9.98942 7.8783 9.89815 7.89734C9.80688 7.91638 9.72326 7.96192 9.65777 8.02828C9.59227 8.09463 9.54782 8.17884 9.52998 8.27035C9.51213 8.36186 9.5217 8.45661 9.55746 8.54271C9.59322 8.62881 9.65359 8.70244 9.73102 8.75437C9.80845 8.80631 9.89949 8.83424 9.99272 8.83466C10.0561 8.83613 10.1192 8.82461 10.178 8.80082C10.2368 8.77704 10.2901 8.74148 10.3346 8.69634C10.3792 8.6512 10.414 8.59743 10.4371 8.53832C10.4601 8.47922 10.4708 8.41604 10.4685 8.35266Z" fill="#011A5A"/>
</svg>
