<svg width="20" height="18" viewBox="0 0 20 18" fill="none" xmlns="http://www.w3.org/2000/svg">
<path d="M20 12.141C19.9415 12.3727 19.8956 12.6087 19.8204 12.8342C19.5828 13.5725 19.0965 14.2057 18.4444 14.6257C18.3883 14.6558 18.3424 14.7018 18.3123 14.7579C18.2822 14.814 18.2693 14.8777 18.2753 14.941C18.2753 15.5528 18.2753 16.1646 18.2753 16.7785C18.293 16.9017 18.2694 17.0273 18.2082 17.1357C18.147 17.2442 18.0516 17.3293 17.937 17.3778C17.8207 17.4232 17.6927 17.4294 17.5725 17.3955C17.4523 17.3615 17.3464 17.2894 17.2709 17.1899C16.6696 16.5843 16.0619 15.9851 15.4648 15.3754C15.4174 15.3233 15.3592 15.2823 15.2943 15.2552C15.2293 15.2282 15.1592 15.2157 15.0889 15.2187C12.8881 15.2187 10.6866 15.2187 8.48441 15.2187C7.67064 15.235 6.87573 14.9727 6.23141 14.4754C6.14716 14.4132 6.06887 14.3433 5.99755 14.2666C5.97185 14.241 5.95146 14.2106 5.93755 14.1771C5.92364 14.1436 5.91648 14.1076 5.91648 14.0714C5.91648 14.0351 5.92364 13.9992 5.93755 13.9657C5.95146 13.9322 5.97185 13.9017 5.99755 13.8761C6.04252 13.8191 6.10762 13.7815 6.17947 13.771C6.25131 13.7606 6.32445 13.778 6.38384 13.8198C6.4232 13.8432 6.45964 13.8712 6.49241 13.9033C7.02435 14.3629 7.70627 14.6118 8.40924 14.6028C10.6497 14.6028 12.8902 14.6028 15.1307 14.6028C15.2638 14.5982 15.3964 14.6221 15.5195 14.6728C15.6427 14.7236 15.7536 14.8001 15.8448 14.8972C16.3835 15.4443 16.9306 15.9851 17.4735 16.528C17.5236 16.5781 17.5758 16.624 17.6572 16.7033C17.6572 16.5989 17.6677 16.5321 17.6677 16.4653C17.6677 15.9308 17.6677 15.3962 17.6677 14.8617C17.6623 14.7214 17.6947 14.5823 17.7616 14.4589C17.8285 14.3354 17.9273 14.2322 18.0477 14.1601C18.4557 13.9166 18.7935 13.5713 19.0281 13.1581C19.2627 12.7449 19.3861 12.2779 19.3861 11.8027C19.407 10.6042 19.4133 9.40353 19.3694 8.20708C19.3235 6.95425 18.1688 5.78076 16.918 5.64922C16.7092 5.62833 16.49 5.6179 16.2749 5.6179C13.6593 5.6179 11.0416 5.6179 8.42177 5.6179C7.75578 5.60952 7.10745 5.83211 6.58706 6.24781C6.06667 6.66351 5.70636 7.24666 5.56741 7.89805C5.52292 8.10382 5.50191 8.31396 5.50477 8.52446C5.50477 9.56849 5.50477 10.6125 5.50477 11.6565C5.49833 12.0541 5.56925 12.4491 5.71357 12.8196C5.75068 12.8859 5.76225 12.9635 5.74609 13.0377C5.72994 13.1119 5.68718 13.1777 5.62587 13.2226C5.58601 13.2513 5.53971 13.2699 5.49102 13.2766C5.44233 13.2833 5.39273 13.278 5.34657 13.2611C5.30041 13.2442 5.2591 13.2162 5.22625 13.1797C5.1934 13.1431 5.17002 13.0991 5.15815 13.0514C4.97943 12.617 4.88996 12.1512 4.89506 11.6816C4.89506 11.1951 4.89506 10.7065 4.89506 10.2095C4.61317 10.1782 4.3814 10.1719 4.16424 10.4183C3.70904 10.9194 3.21418 11.3851 2.73392 11.8612C2.64922 11.9667 2.52915 12.038 2.39593 12.0618C2.26271 12.0856 2.12538 12.0603 2.00937 11.9906C1.92878 11.9405 1.86305 11.8697 1.819 11.7857C1.77494 11.7016 1.75416 11.6073 1.75881 11.5125C1.75881 10.9842 1.75881 10.458 1.75881 9.92972C1.7641 9.8726 1.75272 9.81518 1.72603 9.7644C1.69935 9.71363 1.65851 9.67169 1.60847 9.64365C1.10641 9.32868 0.694456 8.88909 0.412704 8.36767C0.130951 7.84624 -0.0110004 7.26075 0.000669453 6.66818C0.000669453 5.60119 0.000669453 4.53211 0.000669453 3.46303C0.0022422 2.55404 0.361469 1.68218 1.0007 1.03592C1.63992 0.389659 2.5078 0.020915 3.41672 0.00939622C6.18408 -0.00313207 8.95214 -0.00313207 11.7209 0.00939622C12.1017 0.0387268 12.4776 0.114457 12.8401 0.234906C12.8823 0.242299 12.9223 0.259226 12.957 0.284402C12.9917 0.309578 13.0202 0.342341 13.0403 0.380193C13.0605 0.418045 13.0717 0.459991 13.0732 0.502839C13.0747 0.545687 13.0664 0.588309 13.0489 0.62746C13.0343 0.667298 13.0115 0.703582 12.9818 0.733895C12.9522 0.764209 12.9164 0.787858 12.8769 0.803267C12.8374 0.818675 12.795 0.82549 12.7527 0.823259C12.7103 0.821028 12.669 0.809802 12.6313 0.790328C12.2203 0.642877 11.7857 0.572103 11.3492 0.581523H3.60255C2.25785 0.581523 1.16789 1.3186 0.758632 2.52341C0.664117 2.79212 0.611987 3.07389 0.604115 3.35863C0.589499 4.54464 0.570706 5.73065 0.616643 6.90831C0.630454 7.35357 0.7556 7.78827 0.98065 8.17272C1.2057 8.55716 1.52348 8.87909 1.90497 9.10911C2.05003 9.18934 2.16903 9.30949 2.24786 9.45531C2.32669 9.60113 2.36204 9.7665 2.34972 9.93181C2.33302 10.3285 2.34972 10.7274 2.34972 11.1241C2.34972 11.1867 2.34973 11.2494 2.36017 11.3496C2.43116 11.2849 2.47918 11.2452 2.52303 11.2013C2.94064 10.7733 3.38749 10.3536 3.80301 9.91301C3.90184 9.79591 4.02748 9.70438 4.16925 9.64622C4.31103 9.58806 4.46474 9.56497 4.61735 9.57893C4.69878 9.57893 4.7823 9.57893 4.88879 9.57893C4.88879 9.20934 4.88879 8.86064 4.88879 8.50984C4.88725 7.88432 5.05563 7.27012 5.37595 6.73282C5.69626 6.19553 6.15649 5.75533 6.70749 5.45921C7.25782 5.15629 7.87951 5.007 8.50738 5.02698C10.4033 5.02698 12.2972 5.02698 14.1931 5.02698H14.4145C14.4333 5.00192 14.4479 4.99357 14.4479 4.98313C14.4479 4.34001 14.4479 3.69272 14.4145 3.05169C14.3587 2.489 14.1161 1.96119 13.7254 1.55246C13.5646 1.36663 13.5563 1.20376 13.7024 1.0743C13.8486 0.944843 14.024 0.978251 14.1785 1.15156C14.7569 1.79998 15.0739 2.64008 15.068 3.50897C15.068 4.00383 15.068 4.4987 15.068 5.01654C15.1495 5.01654 15.2163 5.01654 15.2768 5.01654C15.7341 5.01654 16.1893 5.01654 16.6445 5.01654C17.4551 5.04565 18.2299 5.35741 18.8347 5.8978C19.4396 6.43818 19.8363 7.17314 19.9562 7.97531C19.9658 8.01925 19.9783 8.0625 19.9937 8.10476L20 12.141Z" fill="#011A5A"/>
<path d="M11.6228 12.1639L12.0404 11.7171C12.0111 11.6753 12.0028 11.6545 11.9882 11.6461C11.8172 11.5547 11.6761 11.4163 11.5813 11.2472C11.4866 11.0781 11.4423 10.8854 11.4536 10.6919C11.4536 10.387 11.4536 10.0801 11.4536 9.77521C11.4403 9.56365 11.4935 9.35323 11.6059 9.17347C11.7182 8.99371 11.884 8.85366 12.08 8.77295C11.9827 8.28596 11.7182 7.84829 11.3324 7.53564C10.9465 7.22299 10.4635 7.05501 9.96693 7.06075C8.96884 7.08372 8.05637 7.84794 7.93735 8.77295C8.44266 9.00264 8.59926 9.42442 8.56376 9.9527C8.54706 10.2763 8.57629 10.6063 8.53453 10.9257C8.50265 11.1721 8.3755 11.3963 8.18034 11.55C7.98518 11.7038 7.73754 11.775 7.49051 11.7484C7.25349 11.725 7.03323 11.6157 6.87129 11.441C6.70934 11.2664 6.61691 11.0385 6.61144 10.8004C6.59891 10.4225 6.59682 10.0446 6.61144 9.66872C6.61262 9.48464 6.66761 9.30492 6.76964 9.1517C6.87166 8.99848 7.01627 8.87843 7.18565 8.80635C7.2322 8.7882 7.27323 8.75825 7.30472 8.71945C7.3362 8.68064 7.35705 8.63432 7.36522 8.58502C7.49878 7.97561 7.83926 7.43126 8.32879 7.04451C8.81832 6.65776 9.42668 6.45248 10.0505 6.46356C10.6706 6.46846 11.2707 6.6843 11.7519 7.07556C12.2331 7.46682 12.5668 8.01021 12.6981 8.61635C12.7178 8.68624 12.7644 8.74552 12.8276 8.7813C13.0181 8.86213 13.179 8.99973 13.2885 9.17534C13.398 9.35096 13.4506 9.55605 13.4394 9.76268C13.4394 10.0863 13.4394 10.4121 13.4394 10.7378C13.4449 10.9445 13.3865 11.1479 13.2722 11.3202C13.1578 11.4924 12.9931 11.6252 12.8004 11.7004C12.723 11.7362 12.6608 11.7983 12.625 11.8758C12.4689 12.2155 12.2114 12.4985 11.8879 12.686C11.8046 12.7369 11.7362 12.8089 11.6896 12.8948C11.5805 13.0896 11.413 13.2452 11.2106 13.3397C11.0083 13.4341 10.7814 13.4625 10.562 13.4209C10.3668 13.3986 10.1837 13.3147 10.0392 13.1815C9.89466 13.0482 9.79625 12.8725 9.75813 12.6797C9.74227 12.4535 9.81482 12.23 9.96049 12.0563C10.1062 11.8826 10.3136 11.7722 10.5391 11.7484C10.7404 11.7134 10.9474 11.7335 11.1382 11.8067C11.329 11.8798 11.4965 12.0033 11.6228 12.1639ZM7.95823 10.2388V9.71048C7.96079 9.66021 7.95305 9.60995 7.9355 9.56278C7.91794 9.51561 7.89094 9.47252 7.85614 9.43615C7.82134 9.39979 7.77947 9.37091 7.73312 9.3513C7.68676 9.33169 7.63689 9.32175 7.58655 9.3221C7.53602 9.31936 7.48549 9.32734 7.43825 9.34549C7.39102 9.36365 7.34816 9.39159 7.31247 9.42747C7.27679 9.46335 7.24909 9.50637 7.23119 9.5537C7.21329 9.60103 7.2056 9.65161 7.20862 9.70213C7.20862 10.055 7.20862 10.4058 7.20862 10.7566C7.20609 10.8073 7.21379 10.8579 7.23125 10.9055C7.24872 10.9532 7.27559 10.9968 7.31027 11.0338C7.34496 11.0708 7.38674 11.1005 7.43313 11.121C7.47952 11.1416 7.52957 11.1525 7.58029 11.1533C7.63333 11.1529 7.68572 11.1416 7.73416 11.12C7.78259 11.0984 7.82603 11.0669 7.86173 11.0277C7.89743 10.9885 7.92461 10.9423 7.94158 10.892C7.95855 10.8418 7.96493 10.7886 7.96032 10.7357C7.96867 10.5708 7.96658 10.4079 7.96658 10.2388H7.95823ZM12.8109 10.2388C12.8109 10.055 12.8109 9.87335 12.8109 9.69169C12.8125 9.6439 12.8047 9.59626 12.7878 9.55153C12.7709 9.50679 12.7453 9.46585 12.7125 9.43108C12.6797 9.39631 12.6403 9.36841 12.5966 9.34899C12.5529 9.32956 12.5058 9.319 12.458 9.31793C12.4089 9.31568 12.36 9.32333 12.314 9.34043C12.268 9.35752 12.2259 9.3837 12.1902 9.41742C12.1546 9.45113 12.1261 9.49168 12.1064 9.53665C12.0868 9.58162 12.0764 9.63009 12.0759 9.67916C12.0759 10.0446 12.0759 10.41 12.0759 10.7733C12.0775 10.8725 12.1176 10.9671 12.1877 11.0373C12.2579 11.1074 12.3525 11.1475 12.4517 11.1491C12.5022 11.1495 12.5523 11.1395 12.5988 11.12C12.6454 11.1004 12.6875 11.0716 12.7227 11.0353C12.7578 10.999 12.7852 10.956 12.8032 10.9088C12.8213 10.8616 12.8295 10.8112 12.8276 10.7608C12.8255 10.5896 12.8192 10.4142 12.8192 10.2388H12.8109ZM10.7353 12.3268C10.5265 12.3268 10.3428 12.4437 10.3386 12.5732C10.3344 12.7027 10.5203 12.8238 10.7249 12.8279C10.9295 12.8321 11.13 12.711 11.1258 12.5732C11.1216 12.4354 10.9525 12.3352 10.7437 12.3352L10.7353 12.3268Z" fill="#011A5A"/>
<path d="M15.3687 8.15486H14.2558C14.0282 8.15486 13.9029 8.04002 13.905 7.8521C13.9071 7.66417 14.0324 7.55977 14.2454 7.55768C15.0138 7.55768 15.7794 7.55768 16.5422 7.55768C16.5846 7.55177 16.6278 7.55531 16.6686 7.56804C16.7095 7.58076 16.747 7.60237 16.7785 7.6313C16.8101 7.66023 16.8348 7.69578 16.851 7.7354C16.8672 7.77501 16.8744 7.81771 16.8721 7.86044C16.8721 8.04002 16.7448 8.15069 16.5318 8.15278L15.3687 8.15486Z" fill="#011A5A"/>
<path d="M15.1098 9.49539C14.8258 9.49539 14.5398 9.49539 14.2537 9.49539C14.0303 9.49539 13.9008 9.37638 13.905 9.19054C13.9092 9.0047 14.0386 8.9003 14.2641 8.9003H15.9784C16.206 8.9003 16.3334 9.00679 16.3355 9.19262C16.3376 9.37846 16.2123 9.49331 15.9868 9.49539C15.6945 9.49748 15.4021 9.49539 15.1098 9.49539Z" fill="#011A5A"/>
<path d="M5.63006 4.33583C5.51683 4.33017 5.40998 4.28167 5.33116 4.20016C5.25235 4.11865 5.20747 4.01024 5.20561 3.89687C5.20375 3.78351 5.24506 3.67368 5.32115 3.58963C5.39725 3.50558 5.50246 3.45361 5.61545 3.44423C5.734 3.4431 5.84823 3.4887 5.93342 3.57115C6.01861 3.65361 6.0679 3.76629 6.07064 3.88481C6.07147 3.94339 6.06071 4.00156 6.039 4.05597C6.01728 4.11039 5.98502 4.15997 5.94408 4.20188C5.90314 4.24379 5.85433 4.2772 5.80044 4.30019C5.74655 4.32317 5.68865 4.33529 5.63006 4.33583Z" fill="#011A5A"/>
<path d="M2.92603 4.33583C2.86757 4.33614 2.80964 4.32465 2.75573 4.30204C2.70181 4.27943 2.65302 4.24617 2.61227 4.20425C2.57152 4.16233 2.53965 4.11261 2.51858 4.05808C2.4975 4.00355 2.48765 3.94533 2.48962 3.8869C2.48962 3.82832 2.50119 3.77031 2.52367 3.71621C2.54616 3.66212 2.5791 3.613 2.62063 3.57167C2.66215 3.53034 2.71142 3.49762 2.76562 3.4754C2.81983 3.45317 2.87788 3.44187 2.93646 3.44214C3.05503 3.44591 3.16754 3.4954 3.25044 3.58025C3.33334 3.66509 3.3802 3.77872 3.38122 3.89734C3.37848 4.01567 3.32911 4.12814 3.24386 4.21026C3.15861 4.29238 3.04438 4.33751 2.92603 4.33583Z" fill="#011A5A"/>
<path d="M4.27072 4.33584C4.15275 4.33365 4.04039 4.2851 3.95793 4.20069C3.87548 4.11629 3.82958 4.00281 3.83015 3.88482C3.83447 3.76646 3.88455 3.6544 3.96985 3.57222C4.05514 3.49004 4.16899 3.44417 4.28743 3.44424C4.34601 3.44505 4.40384 3.45752 4.45754 3.48094C4.51124 3.50436 4.55973 3.53826 4.60017 3.58065C4.64061 3.62303 4.6722 3.67306 4.69307 3.7278C4.71395 3.78253 4.72369 3.84089 4.72174 3.89944C4.72178 3.958 4.71002 4.01597 4.68718 4.06989C4.66434 4.12381 4.63089 4.17259 4.5888 4.21331C4.54672 4.25403 4.49687 4.28586 4.44222 4.30692C4.38758 4.32797 4.32925 4.3378 4.27072 4.33584Z" fill="#011A5A"/>
</svg>
