<svg width="20" height="21" viewBox="0 0 20 21" fill="none" xmlns="http://www.w3.org/2000/svg">
<path d="M20 9.31023V10.7169C19.9707 10.9411 19.9445 11.1658 19.9116 11.3893C19.6215 13.3697 18.8296 15.1231 17.5021 16.6202C15.9633 18.3556 14.0508 19.4441 11.7652 19.8601C11.416 19.9239 11.0613 19.9646 10.7094 20.0167H9.30674C9.08267 19.9877 8.85822 19.9627 8.63494 19.9286C5.99193 19.5251 3.80799 18.2993 2.16486 16.1912C0.204208 13.6766 -0.437872 10.8229 0.292582 7.71767C1.01678 4.64097 2.86286 2.40536 5.68262 1.00106C7.57093 0.061724 9.58203 -0.198158 11.6588 0.144307C13.5155 0.449981 15.1602 1.23432 16.5726 2.48011C18.3244 4.02531 19.4252 5.94821 19.8432 8.25309C19.9069 8.60339 19.9484 8.95759 20 9.31023ZM10.0126 1.25976C5.21103 1.25311 1.28503 5.17365 1.26509 9.99751C1.24515 14.8014 5.18718 18.7572 10.0028 18.7646C14.8031 18.7724 18.7303 14.8507 18.751 10.0265C18.7718 5.22335 14.8289 1.26759 10.0126 1.25976Z" fill="#011A5A"/>
<path d="M9.35953 11.1913C9.38729 10.9142 9.38143 10.6285 9.44947 10.3619C9.60979 9.73569 10.0145 9.30752 10.6194 9.07347C11.38 8.77914 11.9001 8.23863 12.1789 7.4813C12.5856 6.37523 11.8512 5.03903 10.6687 4.69774C9.24026 4.28561 7.84583 5.25469 7.73048 6.73844C7.72709 6.8618 7.70938 6.98435 7.67769 7.10361C7.58384 7.3901 7.27844 7.55879 6.9793 7.50674C6.8305 7.47855 6.69674 7.39788 6.60231 7.27938C6.50789 7.16088 6.45906 7.01241 6.46469 6.86094C6.48737 5.83472 6.85925 4.95058 7.62842 4.27035C8.67287 3.34706 9.88626 3.08522 11.2013 3.5588C12.4999 4.02651 13.2738 4.98776 13.5053 6.34549C13.7098 7.54705 13.2316 8.53413 12.4123 9.37836C12.037 9.75973 11.5834 10.055 11.0828 10.2437C10.77 10.365 10.6359 10.5631 10.6324 10.8993C10.6296 11.1596 10.6343 11.4202 10.6324 11.6821C10.6344 11.7653 10.6199 11.8481 10.5895 11.9256C10.5591 12.0031 10.5135 12.0737 10.4555 12.1333C10.3974 12.1929 10.328 12.2402 10.2514 12.2726C10.1747 12.3049 10.0924 12.3216 10.0092 12.3216C9.92607 12.3216 9.84374 12.3049 9.7671 12.2726C9.69047 12.2402 9.62107 12.1929 9.563 12.1333C9.50494 12.0737 9.45937 12.0031 9.42899 11.9256C9.39862 11.8481 9.38404 11.7653 9.38612 11.6821C9.38338 11.5196 9.38612 11.3568 9.38612 11.194L9.35953 11.1913Z" fill="#011A5A"/>
<path d="M10.8408 15.0112C10.8415 15.1765 10.7931 15.3382 10.7017 15.4759C10.6103 15.6136 10.4801 15.721 10.3276 15.7844C10.1751 15.8479 10.0072 15.8645 9.84523 15.8323C9.68326 15.8 9.53454 15.7202 9.41795 15.6032C9.30137 15.4861 9.22219 15.337 9.19048 15.1747C9.15876 15.0125 9.17595 14.8445 9.23984 14.6921C9.30374 14.5397 9.41147 14.4097 9.54933 14.3187C9.6872 14.2277 9.84899 14.1798 10.0141 14.181C10.1229 14.181 10.2306 14.2025 10.3311 14.2443C10.4316 14.286 10.5228 14.3472 10.5996 14.4243C10.6764 14.5015 10.7373 14.593 10.7786 14.6937C10.82 14.7944 10.8411 14.9023 10.8408 15.0112Z" fill="#011A5A"/>
</svg>
