<svg width="20" height="20" viewBox="0 0 20 20" fill="none" xmlns="http://www.w3.org/2000/svg">
<path d="M20 10.6666C19.9812 10.7125 19.9583 10.7584 19.9416 10.8043C19.8611 11.0541 19.7042 11.2723 19.493 11.428C19.2818 11.5838 19.027 11.6692 18.7645 11.6724C16.5315 11.6724 14.2992 11.6724 12.0675 11.6724C11.7402 11.6724 11.4263 11.5425 11.1946 11.3113C10.963 11.0801 10.8326 10.7664 10.832 10.4392C10.8237 7.3788 10.8237 4.31359 10.832 1.2435C10.832 1.0777 10.8652 0.913576 10.9297 0.76084C10.9942 0.608104 11.0887 0.469862 11.2076 0.354293C11.3265 0.238724 11.4674 0.148176 11.6219 0.0880163C11.7764 0.0278563 11.9414 -0.000694731 12.1072 0.00405025H18.6581C18.9567 -0.020137 19.2539 0.0645904 19.4949 0.242576C19.7358 0.420562 19.9041 0.679755 19.9687 0.972226C19.9764 0.989209 19.987 1.00474 20 1.01814V10.6666ZM11.6752 5.84028V10.2889C11.6752 10.7063 11.8025 10.8252 12.2094 10.8252H18.6122C19.0296 10.8252 19.1631 10.6979 19.1631 10.2827V1.38121C19.1631 0.976404 19.0275 0.840769 18.6247 0.840769H12.2011C11.8087 0.840769 11.6752 0.976405 11.6752 1.36869V5.84028Z" fill="#011A5A"/>
<path d="M1.01923 20C0.772543 19.8794 0.538366 19.7347 0.320102 19.5681C0.209171 19.4573 0.123416 19.3239 0.0686771 19.177C0.0139378 19.0301 -0.00850158 18.8731 0.00288651 18.7167C0.00288651 15.6912 0.00288651 12.6649 0.00288651 9.63792C-0.00520331 9.46343 0.0233166 9.28918 0.0866125 9.12637C0.149908 8.96356 0.24658 8.81579 0.370411 8.69257C0.494242 8.56934 0.642492 8.4734 0.80563 8.41089C0.968768 8.34838 1.14318 8.32069 1.31766 8.32961H7.82268C8.0045 8.31634 8.18706 8.34227 8.358 8.40564C8.52894 8.46902 8.68427 8.56838 8.81348 8.69697C8.94269 8.82557 9.04277 8.98041 9.10694 9.15102C9.17112 9.32164 9.19789 9.50405 9.18545 9.68591C9.18545 12.66 9.18545 15.6341 9.18545 18.6082C9.18545 19.3344 8.89745 19.7329 8.20459 19.975C8.19207 19.975 8.1858 19.9917 8.17746 20H1.01923ZM8.32354 14.1721V9.68174C8.32354 9.31241 8.18789 9.17677 7.81641 9.17677H1.3594C0.979578 9.17677 0.841839 9.31241 0.841839 9.69217C0.839056 12.6732 0.837665 15.6543 0.837665 18.6354C0.837665 19.0276 0.975404 19.1654 1.36775 19.1654H7.79346C8.19833 19.1654 8.32772 19.0318 8.32772 18.6249L8.32354 14.1721Z" fill="#011A5A"/>
<path d="M11.838 20C11.792 19.9812 11.7461 19.9583 11.6981 19.9437C11.448 19.8631 11.2295 19.7059 11.0737 19.4943C10.9179 19.2827 10.8326 19.0275 10.83 18.7647C10.83 17.3646 10.83 15.9666 10.83 14.5665C10.8305 14.239 10.9609 13.9252 11.1924 13.6936C11.424 13.4621 11.7379 13.3318 12.0654 13.3312C14.2915 13.3229 16.5238 13.3229 18.7624 13.3312C19.0249 13.3343 19.2797 13.4198 19.4909 13.5755C19.7021 13.7313 19.859 13.9495 19.9395 14.1992C19.9562 14.2451 19.9791 14.2911 19.9979 14.337V18.9859C19.9369 19.1406 19.8672 19.2918 19.7892 19.4387C19.6029 19.7178 19.3195 19.9179 18.9941 20H11.838ZM15.4212 14.1763H12.1614C11.8171 14.1763 11.6773 14.3182 11.6752 14.6625V18.6646C11.6752 19.0172 11.8171 19.1633 12.1719 19.1633H18.6518C19.0171 19.1633 19.161 19.0193 19.1631 18.6521C19.1631 17.3305 19.1631 16.009 19.1631 14.6875C19.1631 14.3098 19.0212 14.1742 18.6414 14.1742L15.4212 14.1763Z" fill="#011A5A"/>
<path d="M4.59417 0.00404171H7.87485C8.04699 -0.00406536 8.21895 0.0234408 8.37996 0.0848366C8.54098 0.146232 8.68758 0.240191 8.81061 0.360843C8.93363 0.481496 9.03042 0.626236 9.09492 0.78601C9.15942 0.945784 9.19024 1.11715 9.18546 1.28939C9.18546 2.65542 9.18546 4.02215 9.18546 5.38957C9.19007 5.5598 9.1599 5.72918 9.09679 5.88735C9.03369 6.04552 8.93898 6.18914 8.81845 6.30946C8.69792 6.42977 8.5541 6.52424 8.39581 6.58708C8.23751 6.64992 8.06806 6.67981 7.89781 6.67492C5.69817 6.67492 3.49853 6.67492 1.29888 6.67492C1.1265 6.6811 0.954689 6.6516 0.794239 6.58826C0.63379 6.52494 0.488158 6.42915 0.366476 6.3069C0.244795 6.18465 0.149689 6.03857 0.0871228 5.87785C0.0245566 5.71712 -0.0041204 5.54521 0.00289033 5.37288C0.00289033 4.0138 0.00289033 2.65403 0.00289033 1.29356C-0.0041811 1.12233 0.0243405 0.951495 0.0866535 0.791843C0.148966 0.632191 0.243717 0.487184 0.364919 0.366001C0.486121 0.244819 0.631142 0.150094 0.79082 0.0877913C0.950498 0.0254884 1.12136 -0.00302856 1.29262 0.00404171H4.59417ZM4.5733 5.82776H7.8519C8.17955 5.82776 8.32772 5.67961 8.32772 5.34993V1.32903C8.32772 0.991002 8.18372 0.84076 7.83938 0.84076H1.34062C0.987929 0.84076 0.841843 0.986828 0.841843 1.34155C0.841843 2.66863 0.841843 3.99642 0.841843 5.32489C0.841843 5.69005 0.985842 5.82776 1.35106 5.82776H4.5733Z" fill="#011A5A"/>
</svg>
