<svg width="20" height="20" viewBox="0 0 20 20" fill="none" xmlns="http://www.w3.org/2000/svg">
<path d="M0.0083418 9.28811C0.0605067 8.92922 0.100154 8.56824 0.166925 8.21143C0.609943 5.68438 2.02098 3.4297 4.10015 1.9266C5.41396 0.919237 6.97406 0.282952 8.61764 0.0841364C12.5237 -0.364482 15.6975 0.98137 18.0866 4.11126C19.0839 5.4225 19.7127 6.97632 19.9082 8.61205C20.2595 11.1909 19.5942 13.8053 18.053 15.9025C16.5118 17.9998 14.2155 19.4155 11.6495 19.8505C11.3365 19.9068 11.0235 19.9381 10.7063 19.9798H9.2937C9.06834 19.9506 8.84508 19.9256 8.61973 19.8922C6.53113 19.5967 4.58885 18.6502 3.06908 17.1874C1.54931 15.7246 0.529418 13.8198 0.154406 11.744C0.0918082 11.3935 0.0500783 11.0388 0 10.6861L0.0083418 9.28811ZM19.3302 10.0017C19.3297 8.77308 19.0869 7.5566 18.6159 6.42185C18.1448 5.2871 17.4547 4.25633 16.5849 3.38852C15.7151 2.52071 14.6828 1.83286 13.547 1.36433C12.4112 0.895794 11.1942 0.655756 9.96557 0.65795C4.87219 0.65795 0.732386 4.85618 0.746992 10.0017C0.746992 12.466 1.72593 14.8294 3.46844 16.5719C5.21096 18.3144 7.57432 19.2933 10.0386 19.2933C12.5029 19.2933 14.8663 18.3144 16.6088 16.5719C18.3513 14.8294 19.3302 12.466 19.3302 10.0017Z" fill="#011A5A"/>
<path d="M8.52586 8.77062C8.18083 8.54528 7.88987 8.24646 7.67381 7.89555C7.45775 7.54463 7.32193 7.1503 7.27608 6.74076C7.23022 6.33123 7.27546 5.91662 7.40855 5.5266C7.54164 5.13659 7.7593 4.78082 8.04594 4.48475C8.30837 4.21993 8.62178 4.0111 8.96723 3.87089C9.31269 3.73068 9.683 3.66202 10.0558 3.66904C10.4285 3.67606 10.796 3.75863 11.1359 3.91175C11.4758 4.06487 11.7812 4.28536 12.0334 4.55987C12.3025 4.85951 12.5036 5.21377 12.623 5.59838C12.7424 5.983 12.7772 6.38887 12.7251 6.7882C12.6729 7.18753 12.5351 7.57087 12.321 7.91196C12.1069 8.25305 11.8216 8.54382 11.4846 8.76436L11.6161 8.82905C13.1831 9.50302 14.1075 10.684 14.36 12.3763C14.4029 12.8096 14.4175 13.2452 14.4038 13.6804C14.4038 14.2271 14.4038 14.7738 14.4038 15.3204C14.4038 15.671 14.2974 15.7774 13.9531 15.7774H6.02403C5.74025 15.7774 5.60671 15.671 5.60671 15.4102C5.60671 14.4796 5.56288 13.5448 5.63591 12.6204C5.77154 10.8343 6.71468 9.58856 8.34849 8.86451L8.52586 8.77062ZM13.7215 15.1076C13.7215 14.3251 13.7215 13.5656 13.7215 12.8124C13.7198 12.6176 13.7003 12.4234 13.6631 12.2323C13.4913 11.3381 12.9976 10.5379 12.2755 9.98336C11.5533 9.42877 10.6529 9.15827 9.74466 9.22307C8.83645 9.28787 7.98353 9.68347 7.34743 10.335C6.71134 10.9865 6.33625 11.8486 6.2932 12.7581C6.27233 13.5051 6.2932 14.2542 6.2932 15.0012C6.2932 15.0388 6.2932 15.0742 6.30571 15.116L13.7215 15.1076ZM10.0115 4.37207C9.60098 4.37043 9.19918 4.49053 8.85689 4.7172C8.5146 4.94387 8.24719 5.26692 8.08847 5.64553C7.92974 6.02415 7.88684 6.44132 7.96516 6.84432C8.04348 7.24731 8.23953 7.61804 8.52851 7.90964C8.81748 8.20124 9.18642 8.40063 9.58869 8.48259C9.99096 8.56455 10.4085 8.52541 10.7885 8.37012C11.1686 8.21483 11.494 7.95036 11.7238 7.61013C11.9535 7.26991 12.0773 6.8692 12.0793 6.45867C12.084 6.18454 12.034 5.91223 11.9321 5.6577C11.8302 5.40318 11.6785 5.17156 11.4859 4.97643C11.2933 4.78131 11.0637 4.6266 10.8105 4.52139C10.5573 4.41618 10.2857 4.36258 10.0115 4.36373V4.37207Z" fill="#011A5A"/>
</svg>
