<svg width="20" height="19" viewBox="0 0 20 19" fill="none" xmlns="http://www.w3.org/2000/svg">
<path d="M10.7921 13.9529C11.8668 14.108 12.7687 14.5224 13.4512 15.36C14.0062 14.8677 14.6949 14.5515 15.43 14.4515C15.3768 14.416 15.3525 14.3961 15.3237 14.3806C14.8243 14.1063 14.4168 13.691 14.152 13.1866C13.8872 12.6822 13.7768 12.1109 13.8345 11.5442C13.9099 10.8063 14.1559 10.1614 14.7874 9.71603C15.1272 9.46932 15.5256 9.31573 15.9431 9.27049C16.3605 9.22525 16.7826 9.28994 17.1673 9.45813C17.5521 9.62633 17.8862 9.89218 18.1365 10.2293C18.3868 10.5665 18.5447 10.9632 18.5944 11.3802C18.745 12.7097 18.2753 13.6449 17.0432 14.4426C17.2515 14.4936 17.4487 14.5357 17.6393 14.5933C18.3289 14.7819 18.9357 15.1955 19.3632 15.7684C19.7908 16.3413 20.0147 17.0407 19.9993 17.7554V18.6418C19.9993 18.89 19.9128 18.972 19.6624 18.9786H0.454767C0.38085 18.991 0.305074 18.9865 0.233174 18.9653C0.146753 18.9166 0.0115811 18.8279 0.0115811 18.7437C0.0115811 18.0213 -0.0681929 17.2923 0.191071 16.5921C0.620961 15.4331 1.47409 14.7794 2.64632 14.498C2.73939 14.4758 2.83467 14.4581 2.95212 14.436C2.9251 14.408 2.89541 14.3828 2.86348 14.3606C1.78654 13.8266 1.27466 12.5724 1.38767 11.4799C1.46523 10.7553 1.72227 10.1282 2.34052 9.69609C2.68249 9.45016 3.08303 9.29828 3.50209 9.25566C3.92115 9.21304 4.34406 9.28117 4.72854 9.45322C5.11302 9.62528 5.4456 9.89523 5.69305 10.2361C5.9405 10.577 6.09415 10.9768 6.13862 11.3957C6.21921 11.8968 6.1671 12.4103 5.98748 12.885C5.80786 13.3597 5.507 13.7791 5.11487 14.1014C4.94378 14.2314 4.76467 14.3506 4.57861 14.4581C5.30954 14.5603 5.99365 14.8773 6.54414 15.3689C7.22664 14.5312 8.13518 14.1169 9.22098 13.9551C9.15007 13.9152 9.1257 13.8975 9.09689 13.8842C7.98893 13.3501 7.4571 12.4217 7.34852 11.2251C7.24937 10.4747 7.45089 9.71565 7.90915 9.1133C8.51631 8.34437 9.35172 8.13607 10.2802 8.20698C11.2087 8.27789 11.951 8.70779 12.3632 9.58529C13.0014 10.9392 12.567 12.7142 11.3904 13.574C11.2153 13.7158 11.0137 13.8155 10.7921 13.9529ZM13.706 18.4623C13.706 18.1654 13.706 17.8707 13.706 17.5759C13.7163 16.9521 13.5304 16.3408 13.1746 15.8283C12.8187 15.3158 12.3109 14.928 11.7228 14.7196C10.8404 14.3797 9.87668 14.311 8.95507 14.5224C6.70812 15.0032 6.12533 16.6519 6.33141 18.4689L13.706 18.4623ZM6.31811 15.7434C5.99436 15.5331 5.65761 15.3437 5.30987 15.1761C4.50169 14.852 3.61094 14.7953 2.7682 15.0143C0.882442 15.4575 0.352831 16.9023 0.541185 18.4512H5.81288C5.77743 17.525 5.77521 16.6186 6.30704 15.7434H6.31811ZM19.5073 18.4601C19.5073 18.1831 19.5073 17.9216 19.5073 17.6601C19.5079 17.0957 19.3281 16.5459 18.994 16.0911C18.6599 15.6362 18.1891 15.3 17.6504 15.1318C16.7561 14.8222 15.7854 14.8121 14.8849 15.1029C14.4738 15.2221 14.099 15.4423 13.7947 15.7434C13.9429 16.1851 14.0657 16.6349 14.1625 17.0906C14.2121 17.5454 14.2357 18.0026 14.2334 18.4601H19.5073ZM9.8215 8.71C9.15672 8.72551 8.42768 8.99364 8.08864 9.8357C7.86009 10.3342 7.78442 10.8893 7.87118 11.4308C7.95795 11.9723 8.20327 12.476 8.57615 12.8782C9.39161 13.8066 10.6835 13.7645 11.4857 12.8272C11.8832 12.3696 12.117 11.7926 12.1504 11.1874C12.2258 9.84455 11.6208 8.70557 9.81042 8.70114L9.8215 8.71ZM3.7986 9.81796C2.94547 9.81796 2.33609 10.1592 2.07683 10.8506C1.9028 11.2636 1.84366 11.7161 1.90568 12.16C1.96771 12.6039 2.14858 13.0228 2.42916 13.3723C3.18479 14.3518 4.45452 14.3185 5.19242 13.3258C5.49914 12.9122 5.66952 12.4135 5.67992 11.8987C5.69544 10.6866 5.09492 9.80466 3.78753 9.81353L3.7986 9.81796ZM16.2344 9.81796C15.3813 9.81796 14.7697 10.1659 14.5148 10.855C14.3444 11.2659 14.2867 11.7148 14.3479 12.1554C14.4091 12.5961 14.5868 13.0123 14.8627 13.3612C15.6095 14.3451 16.8814 14.3229 17.6238 13.3369C17.9432 12.915 18.1181 12.4013 18.1224 11.8721C18.1357 10.6312 17.4886 9.80245 16.2233 9.81353L16.2344 9.81796Z" fill="#011A5A"/>
<path d="M2.27404 6.79765C2.36489 6.35447 2.45574 5.87804 2.56211 5.3994C2.5847 5.3321 2.58575 5.25943 2.56509 5.19151C2.54444 5.12359 2.50312 5.0638 2.44688 5.02047C2.1012 4.72502 1.76512 4.41626 1.43864 4.09422C1.39646 4.05431 1.3635 4.00567 1.34206 3.9517C1.32063 3.89774 1.31124 3.83975 1.31455 3.78178C1.34466 3.73285 1.38539 3.69131 1.43371 3.66024C1.48204 3.62917 1.53673 3.60937 1.59375 3.60229C2.05023 3.53359 2.51115 3.48484 2.96985 3.43831C3.03403 3.43757 3.09644 3.41721 3.14873 3.37998C3.20101 3.34275 3.24065 3.29042 3.26234 3.23001C3.44257 2.80455 3.63536 2.38427 3.8407 1.96915C3.89525 1.86456 3.98816 1.78515 4.09996 1.74756C4.25065 1.70545 4.32156 1.84506 4.37696 1.96915C4.56753 2.39017 4.76696 2.80676 4.94645 3.23222C4.97148 3.29541 5.01578 3.34912 5.07306 3.38571C5.13034 3.42231 5.19768 3.43994 5.26555 3.43609C5.72424 3.48263 6.18515 3.53137 6.64163 3.60007C6.69562 3.60924 6.74682 3.63056 6.79135 3.66242C6.83588 3.69428 6.87258 3.73586 6.89868 3.78399C6.90246 3.83872 6.89432 3.89361 6.87481 3.94487C6.85529 3.99614 6.82488 4.04256 6.78568 4.08092C6.43778 4.41774 6.07214 4.74571 5.72424 5.07145C5.6951 5.10372 5.6728 5.14155 5.6587 5.18269C5.64461 5.22383 5.63902 5.2674 5.64226 5.31076C5.72425 5.77389 5.82174 6.23038 5.91481 6.69129C5.9414 6.82868 5.97243 6.96827 5.83504 7.07021C5.69765 7.17214 5.57578 7.09237 5.4539 7.02368C5.0506 6.80209 4.6473 6.58049 4.24843 6.33895C4.20694 6.30967 4.1574 6.29396 4.10661 6.29396C4.05583 6.29396 4.00629 6.30967 3.9648 6.33895C3.54155 6.58714 3.11388 6.82646 2.68621 7.06357C2.45797 7.18544 2.26518 7.07907 2.27404 6.79765ZM2.12114 4.04104C2.32689 4.25266 2.54519 4.45171 2.77484 4.63712C2.92169 4.72518 3.03105 4.86413 3.08212 5.02756C3.1332 5.19099 3.12241 5.36749 3.05183 5.52349C2.97958 5.80159 2.92261 6.08343 2.8812 6.36776C3.20694 6.18606 3.49502 6.05089 3.75207 5.8714C3.85303 5.78877 3.97947 5.74363 4.10994 5.74363C4.2404 5.74363 4.36685 5.78877 4.46781 5.8714C4.72707 6.04645 5.01293 6.18384 5.33202 6.36333C5.25668 5.98883 5.2035 5.65645 5.11043 5.33293C5.07255 5.22654 5.07093 5.1106 5.1058 5.00319C5.14066 4.89578 5.21008 4.80292 5.30322 4.73906C5.5647 4.53076 5.79958 4.29586 6.07658 4.0366L5.87714 4.00337C5.54919 3.96348 5.21236 3.91916 4.89105 3.89035C4.82243 3.8863 4.7566 3.86175 4.70208 3.81988C4.64756 3.778 4.60687 3.72072 4.58525 3.65547C4.45451 3.35188 4.3127 3.05273 4.17531 2.75358C4.15315 2.70926 4.12213 2.66937 4.08446 2.60954C3.94264 2.91977 3.78974 3.19233 3.69002 3.49591C3.65319 3.63197 3.56983 3.75083 3.45445 3.8318C3.33907 3.91278 3.19896 3.95073 3.05848 3.9391C2.7682 3.94796 2.46904 3.99893 2.12114 4.04104Z" fill="#011A5A"/>
<path d="M14.065 6.79542C14.1492 6.37218 14.2356 5.90905 14.3376 5.45257C14.3691 5.37125 14.3729 5.28181 14.3485 5.19809C14.3241 5.11437 14.2727 5.04104 14.2024 4.98944C13.8634 4.71024 13.5376 4.40444 13.2252 4.10307C13.1833 4.06306 13.1506 4.01434 13.1296 3.96036C13.1085 3.90638 13.0996 3.84844 13.1033 3.79062C13.1334 3.74169 13.1741 3.70017 13.2225 3.6691C13.2708 3.63803 13.3255 3.61821 13.3825 3.61113C13.8257 3.54244 14.2844 3.49147 14.7386 3.44937C14.8086 3.45037 14.8771 3.42957 14.9347 3.38986C14.9923 3.35015 15.036 3.2935 15.06 3.22778C15.2395 2.81118 15.4278 2.39458 15.6295 1.98685C15.6852 1.88407 15.7766 1.80525 15.8865 1.76526C16.0416 1.72537 16.1081 1.86719 16.1657 1.98685C16.3585 2.40566 16.5601 2.82226 16.7374 3.24993C16.7619 3.31257 16.8055 3.36595 16.8619 3.40252C16.9184 3.4391 16.9849 3.45703 17.0521 3.45379C17.5063 3.50033 17.9584 3.54687 18.4082 3.61335C18.4656 3.62189 18.5203 3.64326 18.5682 3.67587C18.6162 3.70849 18.6562 3.75149 18.6852 3.8017C18.6875 3.85995 18.6772 3.91803 18.655 3.97195C18.6329 4.02587 18.5993 4.07437 18.5567 4.11415C18.2199 4.44211 17.872 4.75677 17.5196 5.06921C17.477 5.10238 17.4452 5.14747 17.4282 5.19876C17.4112 5.25005 17.4099 5.30523 17.4244 5.35728C17.5174 5.80047 17.6105 6.24365 17.6947 6.68684C17.7185 6.78019 17.7238 6.87731 17.7102 6.97269C17.6725 7.1411 17.4886 7.19429 17.3091 7.08792C16.8925 6.86633 16.4759 6.6248 16.066 6.38326C16.0165 6.34805 15.9572 6.32913 15.8965 6.32913C15.8357 6.32913 15.7765 6.34805 15.727 6.38326C15.3126 6.62923 14.8915 6.86633 14.4661 7.099C14.2401 7.18542 14.0561 7.07906 14.065 6.79542ZM13.9055 4.0388C14.1802 4.29142 14.4063 4.52188 14.6567 4.72131C14.7649 4.78931 14.8461 4.89276 14.8865 5.01401C14.9269 5.13525 14.924 5.26677 14.8783 5.38609C14.7896 5.69189 14.7497 6.0132 14.6788 6.3744C15.0068 6.19048 15.3059 6.04423 15.5785 5.86252C15.6698 5.7899 15.7831 5.75036 15.8998 5.75036C16.0165 5.75036 16.1298 5.7899 16.2211 5.86252C16.4959 6.04423 16.7928 6.19047 17.1296 6.37882C17.0499 5.97996 16.9812 5.62984 16.908 5.27086C16.8799 5.18548 16.8796 5.09339 16.9071 5.0078C16.9345 4.92221 16.9884 4.84752 17.0609 4.79444C17.2648 4.63268 17.451 4.44432 17.6437 4.26483L17.8831 4.0388C17.4753 3.99227 17.1274 3.94352 16.7751 3.91693C16.679 3.91578 16.5856 3.88431 16.5085 3.82702C16.4313 3.76972 16.3741 3.68951 16.3452 3.59783C16.2167 3.27431 16.0593 2.95964 15.902 2.61174C15.8577 2.69152 15.8267 2.74249 15.8023 2.79567C15.6804 3.05937 15.5452 3.31641 15.4433 3.58676C15.4155 3.68271 15.3572 3.76701 15.2772 3.82696C15.1973 3.88691 15.1 3.91927 15.0001 3.91915C14.6522 3.94574 14.3065 3.99448 13.9055 4.0388Z" fill="#011A5A"/>
<path d="M12.8219 2.17299C12.7783 2.24289 12.7279 2.30822 12.6712 2.368C12.3432 2.67601 12.0064 2.98624 11.6762 3.27652C11.6134 3.32136 11.5666 3.38515 11.5427 3.45853C11.5188 3.5319 11.519 3.61101 11.5433 3.68426C11.643 4.12745 11.7361 4.57063 11.8114 5.00274C11.8223 5.06004 11.8202 5.11905 11.8052 5.17543C11.7903 5.2318 11.7628 5.2841 11.725 5.32847C11.6408 5.37944 11.4879 5.32848 11.3682 5.30632C11.3165 5.28795 11.268 5.26179 11.2242 5.22876C10.863 5.02489 10.4996 4.82547 10.1428 4.61495C10.1015 4.58536 10.0519 4.56944 10.001 4.56944C9.95014 4.56944 9.90055 4.58536 9.85918 4.61495C9.45589 4.84984 9.04815 5.08472 8.63156 5.30188C8.58593 5.34936 8.52477 5.37887 8.45922 5.38505C8.39366 5.39122 8.32806 5.37366 8.27437 5.33554C8.22068 5.29741 8.18246 5.24127 8.16668 5.17735C8.15089 5.11342 8.15859 5.04596 8.18837 4.98723C8.2615 4.54404 8.359 4.10085 8.45429 3.65767C8.47654 3.59103 8.47739 3.51909 8.45673 3.45194C8.43607 3.38479 8.39492 3.32578 8.33905 3.28318C7.99337 2.98624 7.65655 2.67601 7.33303 2.35692C7.29115 2.31587 7.25783 2.26692 7.23501 2.21291C7.21219 2.15889 7.20031 2.10089 7.20007 2.04225C7.21558 1.89378 7.36405 1.86276 7.50365 1.84946C7.98451 1.7985 8.46536 1.74532 8.944 1.67885C8.98336 1.66838 9.02007 1.64976 9.05176 1.62418C9.08344 1.5986 9.1094 1.56663 9.12792 1.53037C9.33179 1.10713 9.52236 0.679462 9.71515 0.251788C9.77498 0.121048 9.84589 -0.0318616 10.0032 0.00580915C10.1202 0.0501765 10.2161 0.137298 10.2713 0.249569C10.4796 0.670596 10.668 1.10048 10.8586 1.52815C10.8739 1.57494 10.9035 1.61572 10.9433 1.64475C10.9831 1.67378 11.0309 1.68958 11.0802 1.68992C11.5677 1.73646 12.053 1.79629 12.5405 1.8539C12.5806 1.85425 12.6202 1.86305 12.6567 1.87972C12.6932 1.89639 12.7258 1.92057 12.7524 1.95067C12.7789 1.98077 12.7988 2.01612 12.8108 2.05442C12.8228 2.09273 12.8265 2.13313 12.8219 2.17299ZM8.01553 2.31482C8.21314 2.51836 8.42333 2.7093 8.64485 2.88652C8.80363 2.97803 8.92227 3.12584 8.97726 3.30066C9.03225 3.47549 9.01959 3.66457 8.94179 3.8305C8.86908 4.09926 8.81357 4.37237 8.77559 4.64818C9.08582 4.47312 9.36503 4.34682 9.611 4.17177C9.72095 4.07782 9.86082 4.0262 10.0054 4.0262C10.1501 4.0262 10.2899 4.07782 10.3999 4.17177C10.6458 4.34018 10.9206 4.4687 11.222 4.63711C11.1777 4.40222 11.14 4.21386 11.1068 4.02773C10.9295 3.07931 10.8342 3.3984 11.5256 2.73362C11.6652 2.59845 11.8092 2.46771 11.982 2.30594C11.581 2.25941 11.2308 2.21509 10.8741 2.18185C10.7879 2.18597 10.7027 2.16267 10.6306 2.11528C10.5586 2.0679 10.5034 1.99888 10.473 1.91816C10.3844 1.69656 10.2691 1.47497 10.165 1.24008C10.114 1.12707 10.0586 1.01849 9.98992 0.867809C9.82151 1.23565 9.66418 1.55031 9.53344 1.87605C9.50379 1.96903 9.44428 2.04961 9.36414 2.1053C9.28401 2.16099 9.18773 2.18869 9.09026 2.18407C8.75344 2.21731 8.40997 2.26828 8.01553 2.31038V2.31482Z" fill="#011A5A"/>
</svg>
