<svg width="21" height="21" viewBox="0 0 21 21" fill="none" xmlns="http://www.w3.org/2000/svg">
<path d="M0.28775 8.91136C0.381634 8.63899 0.485041 8.37615 0.706825 8.17663C0.972386 7.94088 1.31733 7.8146 1.6722 7.82323C2.13413 7.82323 2.59675 7.81914 3.05869 7.82323C3.10551 7.83081 3.15346 7.82024 3.19277 7.79367C3.23208 7.76711 3.25979 7.72654 3.27026 7.68023C3.39884 7.33977 3.54239 7.00611 3.68798 6.67382C3.71151 6.63604 3.72003 6.59081 3.71184 6.54706C3.70365 6.5033 3.67935 6.46422 3.64376 6.43753C3.32197 6.12362 3.00698 5.80427 2.69131 5.48423C2.05862 4.84756 2.05454 4.08627 2.68587 3.45505C3.10019 3.04172 3.50634 2.6175 3.9431 2.22937C4.17118 2.03012 4.4643 1.9214 4.76704 1.92379C5.06977 1.92617 5.36115 2.03949 5.58607 2.24231C5.97113 2.5889 6.33306 2.96818 6.69771 3.33793C6.79023 3.4319 6.8603 3.44824 6.98208 3.3924C7.30047 3.24737 7.6243 3.11186 7.95222 2.98997C8.00174 2.97913 8.04524 2.94975 8.07382 2.90785C8.10241 2.86595 8.11391 2.8147 8.10597 2.76458C8.09916 2.31585 8.10189 1.86644 8.10597 1.41702C8.10597 0.550193 8.65703 0.000680932 9.51899 0C10.0397 0 10.5601 0 11.0803 0C11.9055 0 12.46 0.552917 12.4675 1.38297C12.4716 1.8392 12.4723 2.29474 12.4675 2.75097C12.4675 2.8783 12.4954 2.94435 12.6267 2.99202C12.9546 3.11254 13.2771 3.25145 13.5961 3.39513C13.7084 3.44552 13.7778 3.43803 13.8683 3.34746C14.1853 3.01993 14.5091 2.69921 14.8336 2.37918C15.4269 1.79358 16.2201 1.79017 16.8113 2.37918C17.2311 2.79659 17.659 3.20787 18.0529 3.64912C18.2565 3.87801 18.3681 4.17423 18.3664 4.48066C18.3646 4.78709 18.2495 5.08201 18.0434 5.30855C17.6998 5.69055 17.3297 6.04872 16.961 6.40689C16.8528 6.51243 16.8481 6.59278 16.9093 6.72489C17.0535 7.03675 17.1814 7.35611 17.3032 7.67819C17.3447 7.78714 17.3944 7.828 17.5121 7.82595C17.9549 7.81914 18.3965 7.82255 18.8394 7.82595C19.7462 7.82595 20.2877 8.36525 20.2877 9.26613C20.2877 9.78091 20.2877 10.2955 20.2877 10.8098C20.2877 11.6269 19.736 12.1798 18.9183 12.19C18.4493 12.1959 17.9808 12.1959 17.5127 12.19C17.395 12.19 17.3454 12.2282 17.3039 12.3378C17.1767 12.6708 17.0399 13.001 16.8923 13.3258C16.8392 13.443 16.8617 13.5097 16.9481 13.5934C17.2699 13.9067 17.5855 14.2267 17.9005 14.5468C18.5128 15.1671 18.5128 15.9277 17.9005 16.546C17.4876 16.9613 17.0841 17.3856 16.6453 17.7751C16.4125 17.9732 16.1163 18.0809 15.8107 18.0787C15.5051 18.0764 15.2105 17.9643 14.9806 17.7628C14.5976 17.4223 14.2411 17.0478 13.8826 16.6801C13.7832 16.578 13.7084 16.5684 13.5812 16.6277C13.275 16.7693 12.9634 16.9001 12.6464 17.0131C12.5022 17.0648 12.4668 17.137 12.4682 17.2821C12.4682 17.8023 12.4872 18.3252 12.4457 18.8428C12.3988 19.4277 12.0484 19.7961 11.4933 19.9717C11.4565 19.9833 11.4252 20.0003 11.3858 20.0146H9.19108C9.15502 20.0003 9.12304 19.9833 9.08427 19.9717C8.52777 19.7967 8.17672 19.427 8.13182 18.8428C8.09032 18.3252 8.10597 17.803 8.11005 17.2827C8.11005 17.137 8.07399 17.0662 7.93113 17.0145C7.6141 16.9001 7.30251 16.77 6.99705 16.6277C6.86779 16.5678 6.79295 16.5821 6.69635 16.6822C6.3317 17.0533 5.97045 17.4312 5.58267 17.7757C5.35742 17.9784 5.06556 18.091 4.76269 18.0922C4.45982 18.0933 4.16712 17.9828 3.94038 17.7819C3.49885 17.389 3.08862 16.96 2.67158 16.5405C2.06542 15.9277 2.0661 15.1664 2.67158 14.5549C2.99133 14.2301 3.31109 13.906 3.63832 13.5894C3.72948 13.5015 3.7356 13.4314 3.68526 13.317C3.54171 12.9976 3.40361 12.6756 3.28319 12.3467C3.23489 12.2152 3.1689 12.186 3.04168 12.188C2.58654 12.1948 2.13141 12.1935 1.6756 12.188C1.32682 12.1973 0.987161 12.0758 0.723152 11.8475C0.493204 11.6433 0.382993 11.3784 0.289789 11.0985L0.28775 8.91136ZM2.5328 11.3028C2.83894 11.3028 3.14509 11.3028 3.45055 11.3028C3.75601 11.3028 3.88323 11.4199 3.9948 11.7073C4.1921 12.2214 4.39959 12.7321 4.6241 13.2339C4.76493 13.5499 4.76016 13.6847 4.51797 13.9312C4.10978 14.3398 3.69683 14.7483 3.28931 15.161C3.02467 15.4279 3.02535 15.6526 3.28931 15.9195C3.64444 16.2756 3.9982 16.6297 4.35469 16.9838C4.64723 17.2759 4.85949 17.2752 5.15407 16.9838C5.56226 16.5793 5.96364 16.1721 6.36979 15.769C6.60586 15.5341 6.74737 15.5307 7.05011 15.6669C7.54675 15.8896 8.04882 16.1006 8.55702 16.294C8.88153 16.4173 8.98698 16.5283 8.98766 16.8742C8.98766 17.4537 8.98766 18.0318 8.98766 18.6133C8.98766 18.9687 9.14073 19.1349 9.48973 19.1396C10.0172 19.1474 10.5445 19.1474 11.0715 19.1396C11.4225 19.1349 11.5776 18.9701 11.5783 18.618C11.5783 18.0379 11.5783 17.4605 11.5783 16.8789C11.5783 16.5283 11.6838 16.4152 12.0035 16.294C12.5065 16.1038 13.0029 15.8982 13.4927 15.6771C13.8268 15.5253 13.9547 15.528 14.22 15.7929C14.6159 16.1887 15.0119 16.5846 15.4078 16.9804C15.697 17.2691 15.9255 17.2712 16.2106 16.9872C16.563 16.6368 16.9143 16.2861 17.2644 15.9352C17.5447 15.6526 17.5461 15.4299 17.2644 15.1473C16.8651 14.7456 16.4637 14.3466 16.0637 13.9455C15.7976 13.6792 15.7963 13.5587 15.9521 13.2176C16.1716 12.7346 16.3757 12.2441 16.5644 11.7461C16.6943 11.4002 16.7977 11.3028 17.1767 11.3028C17.7495 11.3028 18.3223 11.3028 18.8951 11.3028C19.2462 11.3028 19.4101 11.1462 19.4149 10.7935C19.4208 10.2728 19.4208 9.75186 19.4149 9.23072C19.4149 8.8671 19.2482 8.71117 18.8856 8.7098C18.3005 8.7098 17.7148 8.7098 17.129 8.7098C16.8086 8.7098 16.6889 8.59609 16.5739 8.2958C16.38 7.78714 16.1745 7.28257 15.9514 6.78685C15.8038 6.45796 15.8051 6.33131 16.0602 6.0746C16.4644 5.66604 16.8712 5.26497 17.2746 4.85845C17.5467 4.58608 17.5467 4.36137 17.2746 4.08559C16.9254 3.73469 16.5757 3.38469 16.2256 3.0356C15.9303 2.74075 15.7092 2.74279 15.4092 3.04172C15.0132 3.43122 14.6202 3.82185 14.2302 4.21361C13.954 4.49007 13.8349 4.49143 13.488 4.33277C13.0056 4.11147 12.5138 3.90787 12.0178 3.71993C11.6824 3.59328 11.581 3.48637 11.581 3.1248C11.581 2.55826 11.581 1.99173 11.581 1.42247C11.581 1.03229 11.4286 0.872274 11.0456 0.86955C10.5381 0.865465 10.0304 0.865465 9.52239 0.86955C9.14686 0.872955 8.99038 1.03229 8.9897 1.40612C8.9897 1.9856 8.9897 2.56371 8.9897 3.14454C8.9897 3.47956 8.88017 3.596 8.56995 3.71448C8.06197 3.90969 7.55854 4.11873 7.05964 4.34162C6.73785 4.48666 6.61199 4.48598 6.36367 4.23948C5.95548 3.83501 5.5541 3.42849 5.14794 3.02402C4.86085 2.73803 4.64655 2.73667 4.36285 3.01925C4.01226 3.36789 3.66258 3.71789 3.31381 4.06925C3.01991 4.36409 3.01923 4.57518 3.31381 4.86935C3.70839 5.2661 4.10388 5.66218 4.50028 6.05757C4.77241 6.32995 4.77241 6.45388 4.61662 6.80115C4.39755 7.2778 4.19595 7.7624 4.01181 8.25494C3.87575 8.61311 3.77778 8.70776 3.38932 8.70844C2.81037 8.70844 2.23278 8.70844 1.65179 8.70844C1.34905 8.70844 1.17556 8.85212 1.16672 9.149C1.15085 9.72144 1.15085 10.2946 1.16672 10.8684C1.17556 11.1571 1.34769 11.296 1.63886 11.3008C1.93004 11.3055 2.23686 11.3048 2.5362 11.3048L2.5328 11.3028Z" fill="#011A5A"/>
<path d="M10.2878 13.9182C9.51406 13.9189 8.75757 13.6898 8.11403 13.2599C7.47049 12.8301 6.96883 12.2188 6.67257 11.5034C6.37631 10.788 6.29875 10.0008 6.44973 9.24128C6.6007 8.48178 6.97341 7.78419 7.52068 7.23681C8.06795 6.68942 8.76518 6.31686 9.5241 6.16628C10.283 6.0157 11.0695 6.09387 11.784 6.3909C12.4985 6.68793 13.1089 7.19046 13.538 7.83489C13.967 8.47931 14.1954 9.23664 14.1941 10.011C14.1927 11.0473 13.7806 12.0407 13.0482 12.7732C12.3159 13.5057 11.3231 13.9175 10.2878 13.9182ZM13.3261 10.0015C13.3206 8.33117 11.9341 6.94888 10.2755 6.96113C9.47298 6.9686 8.70548 7.29119 8.13824 7.85945C7.571 8.42772 7.24939 9.1962 7.24265 9.99945C7.2338 11.6609 8.61621 13.0473 10.283 13.0493C11.9498 13.0514 13.3315 11.665 13.3261 10.0015Z" fill="#011A5A"/>
</svg>
